<?xml version="1.0" encoding="UTF-8"?>
<!DOCTYPE svg PUBLIC "-//W3C//DTD SVG 1.1//EN" "http://www.w3.org/Graphics/SVG/1.1/DTD/svg11.dtd">
<!-- Creator: CorelDRAW X8 -->
<svg xmlns="http://www.w3.org/2000/svg" xml:space="preserve" width="393px" height="387px" version="1.1" style="shape-rendering:geometricPrecision; text-rendering:geometricPrecision; image-rendering:optimizeQuality; fill-rule:evenodd; clip-rule:evenodd"
viewBox="0 0 348 343"
 xmlns:xlink="http://www.w3.org/1999/xlink">
 <defs>
  <style type="text/css">
   <![CDATA[
    .fil3 {fill:#FFCC29}
    .fil2 {fill:#FEFEFE}
    .fil0 {fill:#FEFEFE;fill-rule:nonzero}
    .fil1 {fill:#FFCC29;fill-rule:nonzero}
   ]]>
  </style>
 </defs>
 <g id="Layer_x0020_1">
  <metadata id="CorelCorpID_0Corel-Layer"/>
  <path class="fil0" d="M171 0c95,0 172,77 172,171 0,95 -77,172 -172,172 -94,0 -171,-77 -171,-172 0,-94 77,-171 171,-171zm163 171c0,-89 -73,-162 -163,-162 -89,0 -162,73 -162,162 0,90 73,163 162,163 90,0 163,-73 163,-163z"/>
  <path class="fil1" d="M54 57c0,-5 1,-10 6,-18 3,-5 9,-9 15,-12 5,-2 11,-4 16,-4 2,0 3,0 3,0 4,-2 7,-4 13,-4l1 0c8,0 13,3 17,7l4 -1 5 2 0 0 0 0c4,1 7,4 10,6 2,2 3,3 5,5 3,-2 7,-3 13,-3l3 0c4,0 8,1 11,3 3,1 5,2 7,3 1,1 2,1 4,2 2,1 4,2 5,3 1,1 0,0 1,1l0 0c1,1 2,1 3,1 1,1 2,1 4,1 1,-2 2,-3 3,-4 3,-3 8,-6 13,-8 4,-2 10,-4 14,-4l6 0c3,0 5,1 6,1l10 0 7 0 6 4c0,1 1,1 3,1 1,-1 2,-2 3,-2 2,-2 4,-3 5,-3 2,-1 3,-2 5,-2 3,-5 7,-8 17,-8l1 0c11,0 19,7 25,16 5,7 9,18 10,25l0 0c14,5 14,12 13,26 0,0 0,0 0,3l0 1 1 6 0 7 -3 6c-3,4 -7,8 -12,11 -3,1 -6,3 -10,4 0,1 -1,2 -1,2 -1,2 -2,4 -2,5l0 1 0 0c0,0 0,-1 0,0 -1,3 -1,9 -4,13 0,2 -1,3 -2,4 0,0 0,1 0,2 -1,4 -2,6 -3,9l-3 13 -5 0 0 0c0,3 -1,6 -2,9l0 0c-2,5 -4,8 -8,11 -2,1 -3,2 -4,3 0,0 0,1 0,1 -1,6 -3,9 -4,12 0,1 -1,3 -1,5 -1,5 -3,7 -5,9 0,2 -1,3 -1,5l0 1 0 20 -12 0c0,0 -1,1 -1,1l1 5 -5 -1 -1 0 0 1 0 3 -2 0 -35 0 -12 5 2 -5c-2,0 -5,-1 -6,0 0,2 1,4 1,6l0 3c0,4 -3,14 -6,21 -3,7 -8,13 -13,16 -1,1 -3,3 -4,4 -4,3 -9,4 -13,4l-2 0 0 0 -2 0 -11 -2 0 0c-2,1 -5,2 -9,2 -1,0 -1,0 -1,0 -1,1 -2,1 -4,1 -1,0 -1,0 -1,0l-1 1 -1 0c-4,2 -7,4 -15,4l-1 0c-6,0 -13,-2 -18,-5 -6,-3 -12,-8 -15,-14 -1,-2 -2,-7 -3,-10 0,-1 -1,-2 -1,-2 0,-1 0,-1 0,-1 0,-1 -1,-1 -1,-2l-3 -5 0 -3c-1,-2 -2,-3 -2,-4 -1,0 0,0 0,0l0 0 0 0c-2,-3 -3,-5 -3,-7 -1,0 -1,-1 -1,-1 0,0 -1,-1 -2,-2l0 0c-1,-1 -2,-2 -3,-3l-20 0 0 0 -13 1 -22 0 2 -22 2 -16 0 -3 -1 -11 -1 0 0 -4 0 -1 0 -2 0 -2 0 0c0,-3 0,-7 1,-11 0,-2 0,-4 0,-8 0,-3 0,-3 0,-3 -1,-15 -1,-23 12,-27 1,-2 2,-4 3,-7 2,-3 4,-6 7,-9l0 0c-1,-7 1,-12 3,-15 0,-1 0,-1 0,-1 -4,-4 -7,-8 -7,-16 0,-7 2,-11 4,-14 1,-1 1,-2 1,-3l0 -1c0,0 0,-2 0,-3 0,-7 -1,-14 5,-22 2,-3 4,-5 6,-7zm39 5c0,3 -1,5 -2,9 -2,8 -6,11 -9,14 0,3 0,6 -1,10l0 1c0,3 -1,5 -2,8 2,3 4,6 4,11 0,1 0,2 0,2 0,1 1,1 1,2 0,1 0,0 0,0 2,4 3,6 3,11 0,8 -2,12 -6,15 0,1 0,2 0,4l0 9 -9 6c-1,0 -1,1 -2,2 0,0 -1,0 -1,1l0 0c0,0 1,0 0,0 -1,8 -2,17 -10,21 0,3 -1,6 -1,9 0,2 0,4 0,7l0 1 0 1 0 2 0 0 2 14 0 2 0 1 0 0 12 0c5,0 9,1 14,2 5,2 10,5 14,10 1,1 2,2 2,3l0 0c2,1 3,2 5,5 0,0 0,0 0,0 2,2 4,4 6,7 1,3 2,5 2,7 0,1 1,2 1,2 3,4 5,6 5,11 1,2 2,4 3,8 1,1 1,2 1,3 2,-1 3,-1 5,-2 3,-1 6,-1 10,-2 0,0 1,0 2,0 2,-1 5,-2 10,-2l0 0 3 0 0 -13 13 4c0,-1 0,-2 0,-3 0,-7 8,-18 13,-24l-37 -11 52 -12 -1 -5 11 1c0,0 1,-1 1,-1l0 0 1 0c2,-1 4,-2 6,-2l0 0 3 0 1 0 0 -5 8 3 0 -2 3 2 1 0 13 -1 2 0 0 0 1 0c0,-1 0,-1 0,-1 1,-3 2,-6 4,-10 0,0 0,0 0,-1l0 -1c0,-3 1,-7 1,-10 3,-8 8,-12 14,-15l-3 -5 7 -11c1,-2 4,-4 6,-7 0,-1 0,0 0,-2l0 -5 4 -5c1,-2 2,-3 3,-4l0 -1c1,-8 3,-12 6,-17 0,-1 1,-2 1,-2 0,-1 1,-2 1,-3 4,-8 5,-12 12,-14 -3,-3 -4,-7 -5,-15 0,-2 -1,-3 -1,-4 0,-2 0,-3 0,-4 0,-1 -1,-2 -1,-3l0 0 0 0c-4,7 -8,12 -21,12 -3,0 -10,-1 -16,-4 -3,-1 -7,-2 -9,-3l-8 0 0 0 -2 0c-3,0 -5,0 -6,-1l-1 0 0 0c0,0 0,0 0,0 -2,1 -2,1 -2,1 -1,0 -1,1 -1,1 -5,6 -11,14 -23,14l-2 0c-6,0 -12,-1 -17,-2 -6,-2 -11,-4 -15,-7l0 0 -2 -1c-1,0 -3,-1 -5,-2 -2,2 -5,3 -10,3 -3,3 -8,5 -14,5 -13,0 -16,-8 -19,-16 -1,-1 -1,-2 -1,-3 -6,1 -10,-1 -14,-4 -6,2 -10,2 -14,1l0 0zm-51 32l0 0c0,0 0,0 0,0zm27 73c0,0 0,0 0,0 -1,2 0,0 0,0l0 0zm12 110c0,0 0,0 0,0l0 0zm201 -145c0,0 0,0 0,0 0,0 -1,0 0,0zm38 5c0,0 0,0 0,0l0 0zm-7 -45l1 0c0,-1 0,0 -1,0l0 0zm-81 -20l-2 0c-1,0 1,0 2,0l0 0z"/>
  <path class="fil2" d="M76 50c-4,7 -1,8 -3,15 -2,6 -7,6 -9,10 -3,4 -1,11 -2,17 0,4 0,4 -1,8 -1,2 -3,4 -3,7 0,2 5,5 6,10 0,3 0,4 1,7 1,2 2,5 2,6 0,2 -6,4 -6,7l1 6c0,2 0,3 0,5 -5,3 -7,5 -10,10 -3,4 -1,13 -6,14 -8,1 -7,4 -7,13 0,7 -1,13 -1,19l0 3 1 3 2 15 0 2c0,1 0,1 -1,2l-1 16 13 0 20 0c5,0 10,1 12,4 3,3 6,5 8,8 1,1 2,2 3,4 1,2 1,4 2,6 1,2 2,4 3,5 2,2 2,3 2,6 2,4 2,3 4,8 0,1 2,9 3,9 2,4 9,9 15,9l1 0c3,0 5,-1 6,-2 3,-3 5,-3 10,-3 2,0 3,-1 6,-1 3,0 3,-2 5,-2l6 0 12 2 2 0c1,0 2,-1 2,-2l0 -7c2,1 3,3 5,3 3,0 9,-17 9,-20l0 -3c0,-2 -1,-3 -1,-4 0,-2 10,-14 12,-16 2,-1 3,-2 4,-4 2,-2 2,-1 4,-2 1,-1 1,-3 2,-5 1,-1 4,-3 4,-3l2 -2c1,-1 2,-3 2,-3 2,0 3,0 4,2 1,2 -2,1 3,2 0,1 0,1 -1,1l0 0c-2,0 0,0 -3,0 1,1 1,1 2,1l1 0c1,0 3,0 3,-1 0,-1 -1,-1 -1,-2l-3 0 4 -1c0,1 1,3 3,3 1,0 2,-1 2,-2l-1 0c0,0 -1,1 -1,1 -1,0 -1,-1 -1,-2l3 0c0,-3 -2,-3 1,-4l0 5c0,1 0,2 1,2l1 0 0 -1 -1 0 0 -4 3 0 0 3c0,2 1,2 2,2l0 -1 -1 0 0 -2c1,0 2,1 2,3 0,1 0,0 0,1l0 0 1 3 -2 0c-1,0 -2,0 -2,0 -1,1 -1,1 -1,2 0,1 1,2 2,2l0 0 3 0 0 -3 1 0 0 3 0 -1c2,1 3,3 7,3 2,-3 7,-6 7,-11l1 0 3 0 0 -4c0,-3 1,-4 1,-9l1 -1c1,-2 3,-3 4,-6 1,-2 0,-5 2,-8 1,-2 2,-3 2,-6 1,-2 1,-8 1,-9 1,-3 8,-6 11,-8 2,-2 3,-4 3,-7 1,-3 2,-6 2,-8l0 -1c0,-1 -1,-1 -1,-2 1,-2 5,-5 8,-6 0,-2 1,-3 2,-6 0,-2 0,-5 0,-8 1,-2 3,-1 4,-4 1,-1 2,-6 2,-8 1,-6 3,-9 5,-14 4,-7 2,-7 11,-8 4,-1 9,-5 11,-8l0 -7 0 -2c0,-8 1,-10 -7,-13 -3,0 -5,-1 -5,-4 0,-4 -1,-6 -1,-9 -1,-8 -8,-25 -16,-25l-1 0c-3,0 -3,4 -5,5 -3,1 -5,2 -8,3 -2,1 -5,2 -6,4 -1,2 -2,6 -5,6 -3,0 -19,-6 -21,-8l-12 1 -2 0c-2,0 -1,-1 -3,-1l-6 0c-4,0 -11,4 -14,6 -2,2 -6,9 -10,9l-2 0c-10,0 -16,-1 -22,-5 -1,-1 -3,-2 -4,-3 -1,-1 -2,0 -4,-2 -2,-1 -7,-4 -9,-4l-3 0c-5,0 -5,6 -9,6l-1 0c-2,0 -2,-1 -4,-1 0,0 -3,5 -7,5 0,0 -4,-10 -5,-11 -1,-1 -7,-8 -8,-8l-1 0 -6 1c-4,0 -8,-7 -13,-7l-1 0c-1,0 -4,3 -6,4 -3,1 -6,0 -10,0 -6,0 -12,3 -15,7z"/>
  <path class="fil3" d="M126 150c0,17 12,36 18,47 4,6 26,38 27,39l1 0c0,-1 23,-33 26,-39 7,-10 19,-30 19,-46 0,-23 -22,-45 -45,-45l-1 0c-23,0 -45,22 -45,44zm20 -3l0 3c0,13 12,25 25,25l1 0c15,0 25,-13 25,-28 0,-12 -12,-24 -25,-24l-1 0c-13,0 -25,12 -25,24z"/>
 </g>
</svg>
