<?xml version="1.0" encoding="UTF-8"?>
<!DOCTYPE svg PUBLIC "-//W3C//DTD SVG 1.1//EN" "http://www.w3.org/Graphics/SVG/1.1/DTD/svg11.dtd">
<!-- Creator: CorelDRAW X8 -->
<svg xmlns="http://www.w3.org/2000/svg" xml:space="preserve" width="418px" height="411px" version="1.1" style="shape-rendering:geometricPrecision; text-rendering:geometricPrecision; image-rendering:optimizeQuality; fill-rule:evenodd; clip-rule:evenodd"
viewBox="0 0 704 692"
 xmlns:xlink="http://www.w3.org/1999/xlink">
 <defs>
  <style type="text/css">
   <![CDATA[
    .fil1 {fill:#FFCC29}
    .fil2 {fill:#FEFFE5}
    .fil0 {fill:#FEFEFE;fill-rule:nonzero}
   ]]>
  </style>
 </defs>
 <g id="Layer_x0020_1">
  <metadata id="CorelCorpID_0Corel-Layer"/>
  <path class="fil0" d="M331 40c180,0 326,146 326,326 0,180 -146,326 -326,326 -180,0 -325,-146 -325,-326 0,-180 145,-326 325,-326zm310 326c0,-171 -139,-309 -310,-309 -170,0 -309,138 -309,309 0,171 139,309 309,309 171,0 310,-138 310,-309z"/>
  <rect class="fil1" y="443" width="704" height="194"/>
  <rect class="fil1" transform="matrix(2.64845E-14 -1 1 2.64845E-14 459.245 352.085)" width="341.658" height="94.2915"/>
  <rect class="fil1" transform="matrix(2.64845E-14 -1 1 2.64845E-14 132.279 341.66)" width="341.658" height="94.2915"/>
  <path class="fil2" d="M158 69c0,24 0,192 -3,198l-6 35c0,5 -1,11 -4,12l0 6c-4,18 -14,36 -20,53 -3,7 -10,18 -13,25 -4,8 -9,15 -12,24 -7,15 -57,86 -57,89l0 78 167 0 0 -177 0 -24 266 0 0 1 2 125 -2 0 0 75 168 0 0 -85c-3,-5 -6,-9 -8,-13l-33 -50c-27,-20 -57,-110 -65,-143 -9,-13 -8,-121 -8,-150l-1 -84 -35 0 0 35c0,8 0,17 0,26l-125 59c0,-3 2,-5 4,-6l0 -3c0,-3 2,-3 5,-4 -1,-4 -6,-6 -11,-7l-2 4 -7 0 -6 7 0 4 0 41 1 2 10 -9c0,0 0,-1 1,-1l133 62c0,13 0,26 0,39l-306 0 0 -39 129 -61 0 11 15 0 0 -47 -15 -2 0 9 -128 -60 0 -33c0,-5 0,-9 0,-14 0,-9 1,-8 -5,-8 -9,1 -20,0 -29,0zm336 62c1,44 2,91 3,137l-131 -62c2,-2 3,-5 3,-10 0,-2 0,-4 0,-6l125 -59zm-303 137l0 -4 1 -116 0 -17 128 60 0 16 -129 61zm-144 243c3,0 1,-2 5,-2l5 0 0 2 -10 0zm14 0l2 0 0 0 -2 0z"/>
 </g>
</svg>
