<?xml version="1.0" encoding="UTF-8"?>
<!DOCTYPE svg PUBLIC "-//W3C//DTD SVG 1.1//EN" "http://www.w3.org/Graphics/SVG/1.1/DTD/svg11.dtd">
<!-- Creator: CorelDRAW X8 -->
<svg xmlns="http://www.w3.org/2000/svg" xml:space="preserve" width="440px" height="387px" version="1.1" style="shape-rendering:geometricPrecision; text-rendering:geometricPrecision; image-rendering:optimizeQuality; fill-rule:evenodd; clip-rule:evenodd"
viewBox="0 0 176 155"
 xmlns:xlink="http://www.w3.org/1999/xlink">
 <defs>
  <style type="text/css">
   <![CDATA[
    .fil2 {fill:#FEFEFE}
    .fil1 {fill:#FFCC29}
    .fil0 {fill:#FEFEFE;fill-rule:nonzero}
   ]]>
  </style>
 </defs>
 <g id="Layer_x0020_1">
  <metadata id="CorelCorpID_0Corel-Layer"/>
  <path class="fil0" d="M88 0c43,0 78,35 78,77 0,43 -35,78 -78,78 -43,0 -77,-35 -77,-78 0,-42 34,-77 77,-77zm74 77c0,-40 -33,-73 -74,-73 -40,0 -73,33 -73,73 0,41 33,74 73,74 41,0 74,-33 74,-74z"/>
  <rect class="fil1" y="64" width="176.339" height="66.9132"/>
  <path class="fil2" d="M36 77l0 1 -24 0 0 0 -5 0c0,16 4,30 11,42l141 0c7,-12 11,-26 11,-42l-1 0 0 0 -25 0 0 -1 -11 -23 3 0 -1 -2 5 0 0 -5 2 0 -1 -3c-1,1 -2,2 -4,2 -2,0 -3,-1 -3,-3l0 0c0,-3 5,-6 6,-8l-1 -1 -21 0c-2,-6 -17,-20 -25,-20l-3 0c-9,0 -25,13 -27,20l-20 0c-2,0 -2,0 -2,2 0,0 5,5 6,7l-2 0 0 3 -6 -2 1 8 5 0 0 2 3 0 -10 23 -2 0zm28 -20l1 4 17 0 0 3 2 -3 13 0 3 4 -1 -4 18 0 0 -3 1 -1 -21 -1 0 -2 3 0 -4 -3 -2 -8 -1 1 2 6 -7 0c-3,0 0,0 -2,1l1 -8 -1 0c0,5 -1,9 -4,10l0 1 1 0 0 2 -19 1zm20 20l13 0 0 -8 -13 0 0 8zm-13 0l12 0 0 -8 -12 0 0 8zm28 0l10 0 0 -8 -10 0 0 8zm16 -8l0 8 6 0 0 -5c0,-2 0,-2 0,-4l-6 1zm-56 8l7 0 0 -8c-7,0 -7,-3 -7,8zm11 -46c5,-3 12,-11 20,-11l2 0c9,0 17,12 21,13 -3,-5 -14,-16 -21,-16 -8,0 -21,8 -22,14zm8 2l24 0c-2,-3 -7,-6 -12,-6l-1 0c-4,0 -9,4 -11,6zm-4 0c4,-2 8,-9 17,-9 6,0 12,6 16,9 -1,-4 -11,-11 -14,-11 -10,0 -16,5 -19,11z"/>
 </g>
</svg>
