<?xml version="1.0" encoding="UTF-8"?>
<!DOCTYPE svg PUBLIC "-//W3C//DTD SVG 1.1//EN" "http://www.w3.org/Graphics/SVG/1.1/DTD/svg11.dtd">
<!-- Creator: CorelDRAW X8 -->
<svg xmlns="http://www.w3.org/2000/svg" xml:space="preserve" width="4500px" height="1019px" version="1.1" style="shape-rendering:geometricPrecision; text-rendering:geometricPrecision; image-rendering:optimizeQuality; fill-rule:evenodd; clip-rule:evenodd"
viewBox="0 0 4500 1019"
 xmlns:xlink="http://www.w3.org/1999/xlink">
 <defs>
  <style type="text/css">
   <![CDATA[
    .fil1 {fill:none}
    .fil0 {fill:#FEFEFE;fill-rule:nonzero}
   ]]>
  </style>
   <clipPath id="id0">
    <path d="M0 0l4500 0 0 1019 -4500 0 0 -1019z"/>
   </clipPath>
 </defs>
 <g id="Layer_x0020_1">
  <metadata id="CorelCorpID_0Corel-Layer"/>
  <g>
  </g>
  <g style="clip-path:url(#id0)">
   <g>
    <g id="_1874764207200">
     <path class="fil0" d="M590 850l1 2c1,4 1,8 1,15l0 49c0,10 -3,13 -6,15 0,1 0,1 0,1 1,2 2,4 3,8l2 7 -7 3 -16 8 -14 6 2 -15 1 -15 -8 -24c-2,0 -3,0 -5,0 -5,1 -11,1 -11,3l0 39c0,19 2,31 4,38 1,9 2,14 -1,19 -3,6 -10,8 -24,13l0 0c-5,1 -11,3 -19,6 -6,2 -13,4 -20,7l0 0c-21,8 -44,16 -62,18l-7 0 -2 -6 -7 -19 -5 10c2,3 2,5 2,13l0 49 0 9 -3 0 2 5 1 1 0 2 -5 111 2 55 0 9 -4 0c1,2 1,5 1,8l0 49 0 9 -9 0 -4 0 -6 0 -3 0 -3 0 -3 0 -6 0 0 0 0 0 -11 0 0 0c-17,0 -20,-35 -20,-71 0,-18 0,-36 1,-50 0,-8 0,-14 0,-19l0 -138c0,-44 0,-88 -1,-132 -1,-44 -2,-89 -2,-131l-24 0 0 0 -148 -8 -13 -1 1 -2 -8 0 9 543 0 9 -9 0 -29 0 0 0c-16,0 -20,-35 -20,-71 0,-18 1,-36 1,-50 0,-8 1,-14 1,-19l0 -138c0,-47 -1,-90 -2,-134 -1,-43 -2,-86 -2,-129l-4 0c-3,0 -9,6 -14,11l0 0c-4,4 -7,8 -11,10l-13 9 0 -3 -1 0c-2,2 -5,4 -5,7l0 397 0 8 -8 0 -51 4 0 2 7 0 0 9 0 29c0,10 -4,13 -7,15 0,0 0,0 0,2l0 32 0 9 -9 0 -19 0 -9 0 0 -9 0 -141 0 -8 9 0 14 0 0 -18 0 0 4 -423c-2,-1 -4,-2 -6,-3 -2,-1 -4,-2 -6,-2 -1,0 -4,1 -7,1 -4,1 -9,2 -14,2 -13,0 -24,-5 -24,-21l0 -40 -151 -47 -6 -2 0 -6 0 -36 0 -9 0 0 0 -4 -4 -62 0 -1 0 0 0 -4 -13 71 -2 7 -1 0 1 3 1 1 0 2c0,4 0,10 -2,14 -3,6 -8,10 -17,10l-4 0c-9,0 -20,-4 -30,-9 -9,-4 -19,-7 -25,-7 -16,0 -34,4 -54,9 -25,6 -53,13 -86,14l-48 19 0 34 -1 9 -8 0 -1 0 0 647 0 9 -9 0 -26 0 -9 0 0 -9 0 -82c0,-9 2,-13 4,-17 1,-2 3,-4 3,-9l0 -54 -47 0 -9 0 0 -8 0 -5 -11 0 -9 0 0 -8 0 -237 0 -7 7 -1 16 -3 0 -6 -7 0 0 -9 0 -39 0 -8 -7 -12 14 -1 0 -5 -16 -3 -7 -1 0 -7 0 -108 0 0 0 0 -12 -10 -10 11c2,6 3,10 3,19l0 79c0,17 -11,18 -24,20l-2 0 0 77 2 1c13,1 24,3 24,20l0 230 0 8 -8 0 -10 0 -9 0 0 -8 0 -2 -67 -4 -32 1 -9 0 0 -6 -14 0 -9 0 0 -9 0 -161 0 -7 7 -1 22 -3 0 -10 -6 0 0 -8 0 -41 0 -2 0 -7 0 -2 0 -11 0 -8 6 0 0 -7 -21 -3 -8 -1 0 -7 0 -106 -22 0 0 106 0 9 -9 0 -10 0c-4,0 -7,0 -9,2 -1,0 -1,1 -1,2l0 92 22 6 7 2 0 7 0 70 0 13 -12 -4c-9,-4 -14,-9 -20,-14 -8,-7 -17,-15 -43,-15l-3 -1 -3 1c-20,0 -39,12 -53,29 -16,18 -26,43 -27,67l0 9 -8 0 -51 0 0 7 0 9 -9 0 -16 0 -9 0 0 -9 0 -161 0 -6 7 -2 20 -5 0 -7 -7 0 0 -9 0 -33 0 0 1 -30 0 -8 6 0 0 -6 -18 0 -9 0 0 -8 0 -103 -22 0 0 99 0 7 -6 2 -23 5 0 90 22 3 7 1 0 8 0 163 0 9 -8 0 -69 0 -9 0 0 -9 0 -206 -6 -2c-5,-1 -7,-2 -9,-3l0 0c0,0 0,0 -2,0 -1,0 0,1 0,1 -1,1 -2,2 -2,4l0 203 0 9 -8 0 -100 0 -1 129 0 8 -9 0 -38 0 -7 0 -1 -6c-1,-3 -1,-4 -2,-5 -1,-4 -2,-6 -2,-14l0 -6c0,-10 1,-20 3,-30 3,-18 6,-37 -1,-57 -4,-11 -6,-28 -7,-46 -1,-17 -2,-34 -2,-48 0,-4 1,-29 1,-49 0,-13 1,-23 1,-24l0 0c3,-9 5,-14 7,-18l0 0c3,-10 5,-13 5,-43l0 -3 1 -2c2,-3 5,-6 7,-8l0 0c2,-3 5,-5 5,-7 0,-1 -6,-9 -13,-18 -7,-11 -15,-21 -17,-23 -8,-5 -20,-6 -30,-8 -18,-2 -33,-5 -32,-20l0 -1 5 -51c0,-10 2,-15 5,-20 0,-1 1,-2 1,-4 -1,0 -3,0 -6,0l-6 0c-11,0 -22,2 -32,5 -10,3 -19,8 -27,13 3,9 10,26 16,42 8,20 15,38 15,42 0,8 -8,14 -19,17l0 0c-14,5 -32,8 -38,9l-7 0 -2 -7c-2,-7 -5,-12 -8,-17 -4,-7 -9,-13 -9,-25l0 -6c0,-10 4,-13 7,-15 0,0 0,0 0,-1l0 -4c0,-5 -1,-9 -3,-11l0 0c-2,-2 -6,-3 -11,-3 -2,0 -5,1 -7,3l14 92 2 17 -15 -8 -14 -8c-2,0 -3,0 -5,0 -13,-1 -23,-1 -23,-19 0,-14 5,-16 13,-20l6 -41 0 0 0 0c-1,-1 -2,-2 -4,-3 -4,-3 -10,-4 -14,-6 -2,0 -4,0 -6,0l-6 0c-7,0 -18,2 -27,6 -4,2 -7,4 -7,5l0 6c0,2 1,3 3,5 1,2 3,4 5,7l2 3 -1 3c0,2 -1,4 -1,6l0 0c-1,3 -2,5 -2,10 4,2 7,6 7,15 0,8 -1,10 -2,13 -1,1 -1,2 -1,8l-1 7 -7 1 -34 4c-8,5 -27,23 -42,40 -10,11 -18,22 -18,26l0 13c2,1 3,1 7,1l4 0c2,0 5,-3 9,-7 6,-6 11,-13 12,-16l1 -5 5 -1 17 -5 11 -4 0 12c0,27 -9,54 -14,69 -2,6 -3,11 -3,12l0 3c0,2 1,2 1,3 1,1 3,3 4,5l2 3 0 3 -8 71c1,2 1,3 2,4 1,1 3,2 4,4l2 3 -1 4 -4 25 1 101 0 9 -8 0 -86 0 -8 0 0 -8c-1,-4 -1,-6 -2,-9l0 0c-1,-4 -2,-7 -2,-15l0 -16c0,-8 2,-11 6,-15l1 -1c-2,-17 -3,-33 -4,-50 0,-18 0,-37 0,-59 1,-16 4,-31 7,-46 3,-20 7,-40 7,-65l0 -7 6 -2 1 0c3,-1 6,-2 6,-4l0 -30 0 -5 4 -2 11 -8c-4,-8 -6,-14 -9,-21 -1,-5 -3,-10 -6,-16 -2,-4 -9,-8 -17,-11 -4,-2 -9,-4 -13,-7 -1,0 -2,0 -3,0 -2,0 -4,0 -5,0l0 0c-12,0 -21,-2 -21,-19l0 -16 0 -4 3 -3 6 -5 -3 -15 -1 -4 3 -4c2,-2 5,-9 8,-15 2,-3 2,-5 3,-7l-1 0 -6 0c-16,0 -28,3 -38,8 -9,4 -16,10 -21,17 3,8 9,22 14,33 4,12 8,22 8,25l0 4c0,13 -10,16 -22,20 -17,5 -44,13 -44,81l0 4c0,1 2,5 4,8 2,1 3,2 4,2 6,0 10,-5 14,-10 3,-4 6,-8 10,-11l19 -14 -5 23c-2,7 -4,13 -5,19 -5,14 -8,27 -8,51 0,11 -1,21 -2,30 -1,16 -2,31 2,44l0 4 -2 3c-9,14 -8,18 -6,23l0 0c2,5 5,11 4,21 0,9 -2,16 -4,24 -3,9 -5,18 -5,29l0 9 3 29 1 6 -6 3 -13 6 -2 1 -2 0 -48 0 0 -17 46 0 6 -3 -3 -23 0 -1 0 -1 0 -9c0,-13 3,-23 6,-33 2,-7 4,-14 4,-20 0,-7 -1,-11 -3,-15l0 0c-4,-10 -6,-17 6,-36 -3,-14 -2,-29 -1,-45 1,-9 1,-19 1,-29 0,-19 2,-32 5,-43 -3,2 -7,3 -12,3 -7,0 -13,-4 -17,-9 -5,-6 -9,-14 -9,-19l0 -4c0,-81 35,-91 57,-98 5,-2 9,-3 9,-3l0 -4c0,-1 -3,-9 -7,-18 -5,-15 -13,-33 -15,-37l-2 -4 3 -5c7,-11 17,-20 30,-27 12,-6 28,-9 46,-9l6 0c5,0 9,1 12,3 4,3 7,7 7,12 0,4 -2,10 -5,16 -2,6 -6,11 -8,15l4 17 1 5 -4 4 -8 6 0 12c0,2 2,2 4,2l0 0c2,0 3,0 4,0 3,0 5,0 6,0l3 0 2 1c4,3 9,5 14,7 10,5 21,9 25,20 3,7 5,12 7,18 2,6 4,12 8,20 17,-18 38,-37 45,-41l2 -1 2 -1 29 -3c1,-3 1,-4 2,-5 0,-1 0,-2 0,-7 0,-1 0,-1 0,-1 -3,-2 -6,-4 -6,-12 0,-8 1,-12 2,-17l0 0 0 -1 -1 -1c-4,-5 -8,-8 -8,-17l0 -6c0,-9 8,-16 18,-21 11,-5 25,-8 34,-8l6 0c3,0 6,1 10,1 6,2 12,4 17,7l0 -4 5 -3c1,0 2,-1 2,-1 5,-3 12,-6 19,-6 10,0 17,2 23,8l0 0c6,5 8,13 8,23l0 4c0,10 -3,12 -6,15 0,0 0,0 0,1l0 6c0,6 3,11 6,16 3,4 5,8 8,14 7,-1 18,-3 26,-6l0 0c5,-2 8,1 8,-1 0,0 -7,-17 -14,-35 -8,-21 -17,-44 -19,-51l-1 -6 5 -3c10,-7 22,-14 37,-19 11,-3 24,-6 37,-6l6 0c8,0 10,1 14,2 1,1 2,1 5,2l7 1 -1 8c0,8 -3,13 -5,17 -1,3 -3,6 -2,11l0 1 0 1 -6 52c1,0 8,1 17,2 13,2 27,4 37,11 5,3 14,15 23,27 8,11 15,24 15,28 0,9 -4,14 -10,19l0 0c-1,1 -2,2 -3,4 0,30 -2,34 -6,46l0 0c-2,4 -4,9 -6,17l0 0c0,0 0,8 -1,19 0,18 0,44 0,49 0,14 0,31 1,47 1,16 3,32 6,41 8,24 5,45 2,65 -1,10 -2,19 -2,28l0 6c0,5 0,6 1,8l23 0 1 -129 0 -9 8 0 100 0 0 -194c0,-3 1,-6 1,-8l-19 0 -8 0 0 -9 0 -92 0 -7 6 -1c3,-1 4,-1 5,-2 4,-1 7,-2 14,-2l1 0 0 -89 0 -9 9 0 36 0 9 0 0 9 0 90 15 3 8 1 0 7 0 20 0 9 -6 0 -1 17 0 0 0 18 6 0 0 -20 0 -7 6 -2 23 -6 0 -101 0 -9 9 0 39 0 9 0 0 9 0 103 17 0 9 0 0 9 0 23 0 8 -6 0 -1 21 0 0 0 24 7 0 0 9 0 23 0 6 -7 2 -19 5 0 129 58 0c3,-25 14,-50 30,-70 16,-18 36,-31 58,-34l0 -2c0,-1 0,-1 0,-1 -3,-3 -6,-5 -6,-12 0,-9 3,-13 7,-17 1,-1 2,-2 3,-2l0 -30 0 -9 8 0 4 0 8 0 0 9 0 33 1 0c3,4 6,8 6,13 0,10 -3,12 -7,15 0,0 0,0 0,1l0 2c26,2 36,11 46,19l2 3 0 -49 -23 -6 -6 -2 0 -6 0 -99c0,-8 3,-13 9,-17 5,-3 12,-5 19,-5l2 0 0 -106 0 -9 8 0 40 0 8 0 0 9 0 107 22 3 8 1 0 7 0 23 0 5 0 4 0 4 0 7 0 9 -7 0 0 25 7 0 0 9 0 25 0 8 -8 1 -22 3 0 144 15 0 8 0 0 7 24 -1 1 0 75 4 1 0 0 -211c0,-2 -4,-2 -10,-3 -3,0 -6,-1 -9,-2l-7 -1 0 -7 0 -92 0 -7 7 -2c3,0 6,-1 9,-1 6,-1 10,-1 10,-3l0 -79c0,-7 -1,-9 -3,-14l0 0 -1 -4 -2 -5 4 -4 18 -19 -3 -15 -4 -30 19 23c1,1 5,7 8,14 8,13 18,34 18,34l0 0 0 101 15 2 8 2 0 7 0 20 0 8 -2 0 0 0 8 14 -13 0 0 21 7 0 0 9 -1 22 0 8 -7 1 -15 3 0 220 11 0 8 0 0 9 0 4 47 0 9 0 0 9 0 62c0,9 -2,13 -4,17 -1,2 -3,4 -3,9l0 74 9 0 0 -648 0 -9 9 0 1 0 1 -32 0 -5 5 -3 55 -21 2 -1 2 0c31,0 58,-7 83,-13 21,-5 40,-10 58,-10 10,0 21,5 31,9 9,4 18,8 24,8l4 0c1,0 1,0 1,0 1,-1 1,-2 1,-4l-7 -14 -6 -11 14 -1 1 0 13 -72 2 -7 7 0 16 0 10 0 -1 10 -1 12 4 54 1 0 9 0 0 8 0 14 0 8 -9 0 -1 0 0 21 152 48 6 1 0 7 0 46c0,2 3,3 6,3 4,0 8,-1 12,-1 3,-1 7,-1 9,-1 5,0 9,2 13,3 3,2 6,3 9,4l7 1 0 7 -4 430 0 0 0 26 0 9 -8 0 -15 0 0 124 3 0 0 -24c0,-10 3,-13 6,-16 0,0 0,1 0,-1l0 -21 -6 0 0 -8 0 -20 0 -8 8 0 51 -4 0 -388c0,-11 5,-16 11,-20 3,-2 5,-4 5,-7l0 0 1 -50 0 -17 14 10 10 7c6,-5 12,-13 16,-22 6,-12 9,-26 10,-42l1 -20 14 15 15 15 4 4c6,1 13,-2 21,-6 6,-4 12,-8 17,-13l1 -6 4 -33 1 -5 4 -2 1 0 0 0c3,-2 8,-3 9,-4l3 -5 5 1 33 4 7 1 0 8 0 33c13,4 34,15 54,25 22,11 43,21 46,21 2,0 0,-1 3,-3 7,-5 17,-14 28,-16l11 -2 0 11 0 76 7 0 9 0 0 9 0 210 10 -20 2 -6 6 1 5 0 6 1 2 5 9 26c15,-3 34,-10 50,-16l0 0c8,-3 15,-6 21,-8 8,-2 15,-5 20,-6l0 0c9,-3 13,-4 13,-4 0,0 0,-3 -1,-8 -1,-8 -3,-21 -3,-41l0 -39c0,-17 12,-19 27,-20 3,-1 6,-1 10,-2l7 -2 3 8 8 23c1,-1 3,-2 4,-2 0,0 0,0 0,-2l0 -49c0,-5 -1,-8 -1,-11 -1,-3 -2,-6 -2,-11l-1 -7 7 -2 4 -1 0 -63 0 -9 8 0 138 0 9 0 0 9 0 61c3,1 6,2 8,4l0 0c3,2 5,4 6,7 1,3 0,7 -2,10 -1,2 -3,4 -6,5 0,4 0,9 0,14 -1,22 -1,47 3,49l0 0 10 -25 3 -7 7 1c3,1 5,2 6,2 3,1 4,1 9,1l13 0 8 0 0 9 1 13 0 0 0 0 -1 36 0 0 0 4c0,6 1,9 2,12 1,2 1,4 1,5l1 4 -1 2c-1,1 -2,3 -2,4 -2,3 -4,6 -4,12l0 0 0 9 97 29 14 -25 7 -15 8 15 14 25 2 4 -2 5 -1 1 0 0c0,2 -1,2 -1,4l10 3 43 12 6 2 0 6 0 9 5 6 9 0c10,0 15,1 21,3l0 -231 0 -9 9 0 15 0 -1 -5 -2 -11 11 0 109 0 0 -391c-5,-2 -10,-4 -14,-8 -7,-5 -12,-12 -12,-19l0 0 0 -36 0 -6 6 -2 17 -5 0 0c-4,-2 -8,-4 -12,-7 -5,-4 -8,-9 -8,-16 0,-2 0,-4 1,-6l-1 0 -7 5 -5 -8c0,0 -1,-1 -1,-1l0 0c-2,-4 -3,-5 -3,-13l0 0 0 -14 0 -10 10 2 13 2 0 -8 8 0 10 0c8,0 14,1 18,1l0 0c0,-2 0,-5 0,-11 0,-3 0,-7 0,-11 0,-14 0,-28 0,-42l0 -20 0 -63c0,-21 0,-41 0,-62l0 -3 1 -2 13 -20 3 -4 5 0 23 0 8 0 0 9c1,6 2,8 3,10l0 0c2,4 4,7 4,16l0 199c1,0 2,-1 4,-1 6,0 8,1 10,2l0 0c1,1 2,1 5,2l7 2 0 6 0 14c0,4 0,7 -2,10 1,0 2,0 2,1 7,4 13,10 13,18l0 3c0,6 -4,13 -8,19 3,4 5,7 5,14l0 14 12 0 0 -30 0 -9 9 0 29 0 9 0 0 7 1 0 9 0 0 8 -1 46 3 21 2 0 9 0 0 9 0 631 1 0 9 0 0 9 0 19 0 1 0 8 0 1 0 17 0 1 0 7 0 1 0 23 0 8 40 -3 0 0 4 0 -12 -55 -3 -11 11 0 4 0 -3 -23 -1 -10 10 0 13 0c3,0 7,-5 9,-10l2 -3 -3 -19 -2 -11 11 1c10,0 14,3 18,5 2,1 3,1 5,1 0,0 11,-10 20,-18 4,-4 7,-6 7,-6l0 -16 0 -11 11 2c7,2 15,6 19,9 5,-2 21,-9 36,-15 6,-3 12,-6 16,-7l0 -14 0 -8 7 -1 12 -2 4 -1 3 3 11 11 49 -11 0 0 1 0 25 -3 0 -11 0 -4 3 -3 3 -3 7 -5 5 7 11 15c8,0 14,-1 21,-1 10,-1 21,-2 34,-2 7,0 12,1 17,1 4,0 7,0 10,0 6,1 10,-1 10,-9l0 -8 9 0 13 0 8 0 1 8 0 11 81 14 17 -14 6 -6 6 7 2 2 2 3 0 3 1 15 62 22 20 -9 13 -5 0 13 0 17c0,0 4,3 9,7 12,9 27,17 28,17 2,0 3,-1 4,-2 4,-2 8,-4 18,-5l9 -1 0 10 0 19c0,1 3,4 6,8 5,5 9,10 9,10 4,0 5,0 6,-1 3,-1 5,-2 14,-2l10 -1 -1 11 -4 24 1 2 10 0 8 0 0 9 0 16c0,13 -2,23 -5,32 -1,5 -3,10 -4,15l26 3 0 27 -8 1 0 -10 0 -1 -28 -3 -8 -1 0 -8c0,-11 3,-20 5,-28 3,-8 5,-16 5,-27l0 -8 -8 0 -6 0 -2 -6 -3 -10 -1 -2 1 -2 2 -13c-2,0 -5,0 -10,0 -4,0 -15,-7 -22,-16 -6,-6 -10,-13 -10,-19l0 -8c-1,0 -1,0 -2,1 -3,2 -6,3 -12,3 -3,0 -24,-10 -38,-20 -9,-6 -17,-14 -17,-21l0 -4 -11 5 -3 1 -3 -1 -71 -25 -6 -2 0 -6 -1 -7 -8 7 -3 2 -4 -1 -92 -15 -8 -1 0 -7 0 -1c-4,8 -12,9 -24,9 -3,0 -7,0 -10,-1 -5,0 -11,0 -16,0 -13,-1 -23,0 -32,1 -9,1 -18,2 -27,2l-5 0 -2 -4 -1 -1 0 7 -8 1 -32 3 -52 12 -5 1 -3 -3 -11 -11 0 12 0 6 -5 2c-2,1 -11,5 -22,10 -19,7 -44,17 -45,17 -2,0 -4,-1 -6,-2l0 0c-1,-1 -3,-2 -5,-3l0 3c0,6 -5,12 -12,19 -12,11 -32,23 -32,23 -6,0 -9,-2 -13,-4l2 10 0 3 -2 3c-1,2 -2,3 -3,5 -5,9 -11,19 -24,19l-3 0 2 23 1 9 -9 1 -3 0 13 54 2 10 -11 1 -14 0 0 0 -49 4 -10 1 0 -10 0 -1 -24 0 -8 0 0 -9 0 -7 0 -8 8 0 24 0 0 -6 -24 0 -8 0 0 -9 0 -9 0 -8 0 -1 0 -8 0 -10 0 -8 8 0 24 0 0 -3 -1 0 -8 0 0 -8 0 -631 -2 0 -7 0 -1 -8 -4 -29 0 -1 0 -1 0 -37 -1 0 -8 0 0 -6 -12 0 0 30 0 9 -9 0 -30 0 -9 0 0 -9 0 -23c0,-2 0,-2 -1,-3 -1,-1 -2,-3 -4,-5l-3 -4 3 -5c1,-1 2,-3 3,-6l0 0c3,-4 6,-9 6,-10l0 -3c0,-1 -2,-2 -4,-3 -4,-2 -9,-4 -13,-5l-16 -4 13 -11c2,-2 4,-3 5,-4 1,0 2,-1 2,-2l0 -7c-1,0 -2,-1 -2,-1l0 0c0,0 0,0 -1,0 -2,2 -5,4 -13,6l-11 3 0 -11 0 -214c0,-5 0,-6 -1,-8l0 0c-2,-2 -3,-5 -4,-9l-11 0 -9 14c0,19 0,39 0,59l0 63 0 20c0,14 0,28 0,42 0,4 0,7 0,11 0,15 1,21 -3,26 -5,5 -9,4 -17,3 -3,-1 -8,-2 -15,-2l-1 0 0 1 0 11 -1 -1c0,16 -3,19 -6,22l0 0c0,0 1,0 1,1 0,1 0,2 1,3 3,2 8,4 12,5l6 2 0 7 0 13 0 6 -6 2 -17 5 0 29 0 0c0,1 2,3 5,5 4,4 10,6 14,6l8 1 0 8 0 407 0 9 -9 0 -108 0 2 5 2 11 -11 0 -18 0 0 234 0 11 -10 -3c-4,0 -8,-2 -11,-3 -5,-1 -9,-3 -17,-3l-13 0 -4 0 -3 -3 -9 -11 -2 -2 0 -3 0 -6 -25 -7 -1 276 0 9 -8 0 -7 0 -8 0 -1 -9 -3 -126 -3 0 0 -8 0 -37c0,-3 0,-5 0,-7l-4 0 0 -9 0 -39c0,-7 2,-10 5,-13 -3,-4 -5,-6 -5,-14l0 -42c0,-7 1,-10 3,-13l-4 -8 -9 18 -4 6 -7 -2 -110 -34 -6 -1 0 -7 0 -15 0 0c0,-10 2,-15 6,-21l0 0 -1 -1c-1,-5 -2,-9 -2,-17l0 -4 0 0 1 -35 0 -5 -5 0c-6,0 -9,-1 -12,-1l-6 16 3 1 0 8 0 13 0 12 -11 -4 -20 -6 -8 -3 2 -8 3 -8c-8,-12 -7,-37 -6,-60 0,-6 0,-12 0,-18l0 -5 -7 0 0 -8 0 -60 -120 0 0 60 0 6 -6 2 -3 1zm-389 -157l0 -22 -22 -2c-3,1 -5,2 -7,4l-2 18 13 0 0 1c2,-1 5,-1 7,-1 3,0 7,1 11,2zm-101 42l0 0 -2 -1c-2,-1 0,-5 -1,-3 0,1 -1,4 -1,7 -1,6 -2,14 -6,21l0 10 0 30 4 0 0 9c0,49 1,94 1,138 1,45 2,90 2,134l0 138c0,3 0,11 -1,19 0,14 -1,31 -1,50 0,27 1,54 3,54l0 0 20 0 -9 -543 0 -8 8 -1 14 0 -17 -27 -9 -13c-3,-2 -4,-6 -5,-11l0 0c0,-1 0,-2 0,-3zm41 2c-3,3 -7,5 -10,8l5 5 157 9c-11,-5 -23,-12 -36,-19 -28,-15 -58,-32 -67,-32 -11,0 -33,17 -49,29zm-14 10c-1,1 -2,2 -3,2l7 0 -4 -2zm210 10c-2,1 -3,3 -4,4l4 0 -17 14c-1,1 -2,2 -3,3l0 10 0 11 11 0 9 0 0 9c0,48 0,94 1,140 1,46 2,91 2,132l0 138c0,3 0,11 -1,19 0,14 -1,31 -1,50 0,27 1,54 3,54l0 0 2 0 -4 -511 0 0 0 -9 0 -1 0 -4 0 0 0 -61 -2 2zm-176 35l108 6c-7,-4 -19,-4 -31,-4 -4,0 -8,0 -12,0 -8,-1 -16,-1 -24,-2 -15,0 -29,-1 -41,-1l0 1zm-14 -11l1 -2 2 -5 5 0c13,-1 30,0 48,1 8,0 16,1 24,1 3,0 7,0 11,0 16,1 33,1 43,8 1,-4 2,-6 4,-8l-147 -9 9 14zm-75 12l0 0 1 0 0 -2 -1 2zm-1011 211l2 -1c0,0 -1,0 -1,-1 0,-1 0,-1 0,-1 0,1 -1,1 -1,2l0 1zm-245 -22l1 -46 -7 1 -15 3 0 200 51 0 0 -147 -22 -2 -8 -1 0 -8zm-38 -57l6 -1 16 -3 0 -6 -7 0 0 -9 0 -26 0 0 1 -26 1 -9 5 0 0 -3 -15 -3 -1 0 1 7 4 36 0 1 0 1 -1 19 0 9 -9 0 -4 0 0 1c0,6 1,9 3,12l0 0zm2 -86l-3 -1 0 -7 0 -90 -19 0 0 90 0 9 -8 0 -10 0c-4,0 -6,0 -8,1l0 1 3 0 2 0 8 0 1 0 10 0 6 0 1 -3 7 0 6 0 4 0zm-48 73l0 5 11 0c2,0 3,0 3,-1 1,0 2,-2 2,-3l0 -1 -2 0 -1 0 -7 0 -1 0 -5 0zm24 -18l1 0 8 0 1 0 5 0 0 -4 -11 -9 -5 -4 0 0 0 17 1 0zm-370 6l-4 -24 -1 9 0 4 -5 2c-2,1 -4,2 -5,3 -2,0 -3,1 -3,3 0,1 3,1 7,2 2,0 5,0 7,0l2 0 1 1 1 0zm-183 120l-4 -1c-1,1 -3,2 -5,2 0,24 -4,43 -7,62 -3,15 -6,29 -6,43 -1,22 -1,41 0,58 0,17 2,34 3,53l1 3 -2 3c-2,2 -3,3 -4,5 -1,0 -1,1 -1,3l0 16c0,6 0,8 1,11l0 0c0,1 1,2 1,4l69 0 -1 -93 0 -1 0 -1 4 -22 -1 -1c-3,-4 -6,-7 -6,-15l0 0 0 -1 7 -68 -1 -1c-3,-4 -5,-7 -5,-15l0 -3c0,-4 1,-9 4,-17 4,-12 10,-32 12,-52l-1 0c-3,6 -8,13 -14,19 -7,7 -15,12 -22,12l-4 0c-7,0 -9,0 -13,-2 -1,0 -3,-1 -5,-1zm2989 -725c1,0 1,-1 1,-1 -1,0 -1,1 -1,1l0 0c0,0 0,0 0,0zm0 0c0,0 0,1 0,0l0 0zm-593 399l0 6c0,5 1,8 1,11 1,1 1,2 1,4 2,0 3,1 4,1l0 0c3,1 6,1 12,1l0 0 81 1 22 -3c1,-2 1,-3 1,-4 1,-3 2,-6 2,-11l0 -10c0,0 -1,-1 -1,-2l-2 7 -2 9 -8 -2c-3,-1 -5,-2 -7,-2 -2,-1 -3,-1 -7,-1l-6 0 -1 1 -1 -1 -26 0 0 0 -39 0c-4,0 -6,0 -8,1 -1,0 -3,1 -5,1l-8 2 -3 -8 0 -1zm-17 6l0 -10c0,-7 1,-13 3,-18 3,-5 5,-10 8,-13l11 -16 5 18 5 21c2,-1 5,-1 9,-1l39 0 1 0 25 1 6 -1 1 0 0 0c5,0 8,1 11,1l5 -20 7 -25 10 24c0,0 1,2 2,5 4,7 10,18 10,24l0 10c0,7 -1,11 -2,15 0,2 -1,4 -1,8l-1 7 -7 1 -29 4 -1 0 0 0 -82 0 0 0c-8,0 -12,-1 -16,-2l0 0c-2,-1 -4,-1 -8,-2l-8 0 0 -8c-1,-4 -1,-6 -2,-8 -1,-4 -1,-8 -1,-15z"/>
     <path class="fil0" d="M4873 850l0 2c1,4 2,8 2,15l0 49c0,10 -3,13 -6,15 0,1 0,1 0,1 0,2 1,4 2,8l2 7 -6 3 -16 8 -14 6 1 -15 2 -15 -9 -24c-1,0 -3,0 -4,0 -6,1 -11,1 -11,3l0 39c0,19 2,31 3,38 1,9 2,14 0,19 -4,6 -10,8 -24,13l0 0c-5,1 -11,3 -20,6 -6,2 -13,4 -20,7l0 0c-20,8 -44,16 -62,18l-7 0 -2 -6 -6 -19 -5 10c1,3 2,5 2,13l0 49 0 9 -3 0 2 5 0 1 0 2 -4 111 2 55 0 9 -4 0c0,2 0,5 0,8l0 49 0 9 -8 0 -5 0 -5 0 -4 0 -3 0 -2 0 -7 0 0 0 0 0 -11 0 0 0c-16,0 -20,-35 -20,-71 0,-18 1,-36 1,-50 1,-8 1,-14 1,-19l0 -138c0,-44 -1,-88 -2,-132 0,-44 -1,-89 -1,-131l-24 0 -1 0 -147 -8 -13 -1 1 -2 -9 0 10 543 0 9 -9 0 -29 0 0 0c-17,0 -21,-35 -21,-71 0,-18 1,-36 2,-50 0,-8 0,-14 0,-19l0 -138c0,-47 -1,-90 -1,-134 -1,-43 -2,-86 -2,-129l-5 0c-2,0 -8,6 -13,11l0 0c-4,4 -8,8 -11,10l-14 9 0 -3 0 0c-3,2 -5,4 -5,7l0 397 0 8 -8 0 -51 4 0 2 6 0 0 9 0 29c0,10 -3,13 -7,15 0,0 1,0 1,2l0 32 0 9 -9 0 -20 0 -9 0 0 -9 0 -141 0 -8 9 0 14 0 0 -18 0 0 4 -423c-2,-1 -4,-2 -5,-3 -3,-1 -5,-2 -6,-2 -2,0 -4,1 -7,1 -4,1 -9,2 -14,2 -13,0 -24,-5 -24,-21l0 -40 -151 -47 -7 -2 0 -6 1 -36 0 -9 0 0 0 -4 -5 -62 0 -1 0 0 1 -4 -14 71 -1 7 -2 0 2 3 0 1 0 2c1,4 1,10 -1,14 -3,6 -8,10 -18,10l-3 0c-9,0 -20,-4 -31,-9 -9,-4 -18,-7 -25,-7 -16,0 -34,4 -53,9 -25,6 -54,13 -86,14l-48 19 -1 34 0 9 -9 0 -1 0 0 647 0 9 -8 0 -27 0 -8 0 0 -9 0 -82c0,-9 2,-13 4,-17 1,-2 2,-4 2,-9l0 -54 -47 0 -9 0 0 -8 0 -5 -11 0 -8 0 0 -8 0 -237 0 -7 7 -1 16 -3 0 -6 -7 0 0 -9 0 -39 0 -8 -7 -12 14 -1 0 -5 -16 -3 -7 -1 0 -7 0 -108 0 0 -1 0 -12 -10 -9 11c2,6 3,10 3,19l0 79c0,17 -12,18 -25,20l-1 0 0 77 1 1c13,1 25,3 25,20l0 230 0 8 -9 0 -10 0 -8 0 0 -8 0 -2 -67 -4 -33 1 -9 0 0 -6 -14 0 -9 0 0 -9 0 -161 0 -7 8 -1 22 -3 0 -10 -7 0 0 -8 0 -41 0 -2 0 -7 0 -2 0 -11 0 -8 7 0 0 -7 -22 -3 -7 -1 0 -7 0 -106 -22 0 0 106 0 9 -9 0 -10 0c-4,0 -8,0 -10,2 0,0 -1,1 -1,2l0 92 23 6 6 2 0 7 1 70 0 13 -12 -4c-9,-4 -14,-9 -20,-14 -9,-7 -18,-15 -43,-15l-3 -1 -3 1c-21,0 -39,12 -54,29 -16,18 -26,43 -26,67l0 9 -9 0 -50 0 0 7 0 9 -9 0 -16 0 -9 0 0 -9 0 -161 0 -6 6 -2 20 -5 0 -7 -6 0 0 -9 0 -33 0 0 0 -30 0 -8 6 0 0 -6 -17 0 -9 0 0 -8 0 -103 -22 0 0 99 0 7 -7 2 -22 5 -1 90 22 3 8 1 0 8 0 163 0 9 -9 0 -69 0 -8 0 0 -9 0 -206 -7 -2c-5,-1 -7,-2 -8,-3l0 0c-1,0 -1,0 -3,0 -1,0 1,1 0,1 0,1 -1,2 -1,4l0 203 0 9 -9 0 -99 0 -1 129 0 8 -9 0 -38 0 -7 0 -2 -6c0,-3 -1,-4 -1,-5 -1,-4 -2,-6 -2,-14l0 -6c0,-10 1,-20 3,-30 2,-18 5,-37 -2,-57 -4,-11 -6,-28 -7,-46 -1,-17 -1,-34 -1,-48 0,-4 0,-29 1,-49 0,-13 0,-23 1,-24l0 0c2,-9 4,-14 6,-18l0 0c4,-10 5,-13 5,-43l0 -3 2 -2c2,-3 4,-6 6,-8l0 0c3,-3 5,-5 5,-7 0,-1 -5,-9 -12,-18 -7,-11 -15,-21 -18,-23 -7,-5 -19,-6 -30,-8 -18,-2 -32,-5 -32,-20l1 -1 5 -51c-1,-10 2,-15 4,-20 1,-1 2,-2 2,-4 -1,0 -3,0 -6,0l-7 0c-11,0 -22,2 -31,5 -10,3 -20,8 -27,13 3,9 10,26 16,42 8,20 15,38 15,42 0,8 -9,14 -20,17l0 0c-13,5 -31,8 -37,9l-8 0 -1 -7c-2,-7 -5,-12 -8,-17 -5,-7 -9,-13 -9,-25l0 -6c0,-10 3,-13 7,-15 0,0 -1,0 -1,-1l0 -4c0,-5 -1,-9 -3,-11l0 0c-2,-2 -6,-3 -11,-3 -1,0 -4,1 -7,3l14 92 3 17 -16 -8 -14 -8c-1,0 -3,0 -4,0 -13,-1 -24,-1 -24,-19 0,-14 6,-16 14,-20l5 -41 0 0 0 0c0,-1 -2,-2 -4,-3 -4,-3 -9,-4 -13,-6 -3,0 -5,0 -6,0l-7 0c-6,0 -18,2 -26,6 -4,2 -8,4 -8,5l0 6c0,2 2,3 3,5 2,2 4,4 6,7l2 3 -1 3c-1,2 -1,4 -2,6l0 0c0,3 -1,5 -1,10 3,2 6,6 6,15 0,8 0,10 -2,13 0,1 0,2 -1,8l-1 7 -7 1 -34 4c-8,5 -27,23 -41,40 -11,11 -19,22 -19,26l0 13c2,1 4,1 8,1l3 0c2,0 6,-3 10,-7 6,-6 11,-13 11,-16l2 -5 4 -1 17 -5 12 -4 0 12c-1,27 -9,54 -14,69 -2,6 -3,11 -3,12l0 3c0,2 0,2 1,3 1,1 2,3 4,5l1 3 0 3 -7 71c0,2 1,3 2,4 1,1 2,2 4,4l2 3 -1 4 -4 25 1 101 0 9 -9 0 -85 0 -8 0 -1 -8c0,-4 -1,-6 -1,-9l0 0c-1,-4 -2,-7 -2,-15l0 -16c0,-8 2,-11 5,-15l1 -1c-1,-17 -2,-33 -3,-50 -1,-18 -1,-37 0,-59 1,-16 3,-31 6,-46 4,-20 7,-40 7,-65l0 -7 7 -2 0 0c4,-1 6,-2 6,-4l0 -30 0 -5 4 -2 11 -8c-4,-8 -6,-14 -8,-21 -2,-5 -3,-10 -6,-16 -2,-4 -9,-8 -17,-11 -4,-2 -9,-4 -13,-7 -2,0 -3,0 -3,0 -3,0 -5,0 -6,0l0 0c-12,0 -21,-2 -21,-19l0 -16 0 -4 3 -3 7 -5 -3 -15 -1 -4 2 -4c2,-2 6,-9 9,-15 1,-3 2,-5 3,-7l-1 0 -7 0c-15,0 -28,3 -38,8 -8,4 -15,10 -20,17 3,8 9,22 13,33 5,12 8,22 8,25l0 4c0,13 -9,16 -21,20 -17,5 -44,13 -44,81l0 4c0,1 1,5 4,8 1,1 2,2 3,2 6,0 10,-5 14,-10 3,-4 6,-8 11,-11l19 -14 -6 23c-1,7 -3,13 -5,19 -4,14 -8,27 -8,51 0,11 0,21 -1,30 -1,16 -2,31 1,44l1 4 -2 3c-9,14 -8,18 -6,23l0 0c2,5 4,11 4,21 0,9 -3,16 -5,24 -2,9 -5,18 -5,29l0 9 4 29 1 6 -6 3 -13 6 -2 1 -2 0 -42 0 0 -17 40 0 6 -3 -3 -23 0 -1 0 -1 0 -9c0,-13 3,-23 5,-33 2,-7 4,-14 4,-20 1,-7 -1,-11 -2,-15l0 0c-4,-10 -7,-17 5,-36 -2,-14 -1,-29 0,-45 0,-9 1,-19 1,-29 0,-19 2,-32 5,-43 -4,2 -8,3 -13,3 -6,0 -12,-4 -17,-9 -5,-6 -8,-14 -8,-19l0 -4c0,-81 35,-91 57,-98 5,-2 9,-3 9,-3l0 -4c0,-1 -3,-9 -7,-18 -6,-15 -13,-33 -15,-37l-3 -4 3 -5c8,-11 18,-20 30,-27 13,-6 28,-9 46,-9l7 0c4,0 9,1 12,3 4,3 6,7 6,12 0,4 -2,10 -4,16 -3,6 -6,11 -9,15l4 17 1 5 -4 4 -7 6 0 12c0,2 1,2 3,2l0 0c2,0 4,0 5,0 2,0 5,0 6,0l3 0 2 1c4,3 9,5 13,7 11,5 21,9 26,20 3,7 5,12 7,18 2,6 4,12 8,20 16,-18 37,-37 45,-41l1 -1 2 -1 30 -3c0,-3 1,-4 1,-5 1,-1 1,-2 1,-7 0,-1 0,-1 0,-1 -4,-2 -7,-4 -7,-12 0,-8 1,-12 3,-17l0 0 0 -1 -2 -1c-4,-5 -7,-8 -7,-17l0 -6c0,-9 7,-16 18,-21 10,-5 25,-8 33,-8l7 0c2,0 6,1 10,1 5,2 12,4 17,7l-1 -4 6 -3c1,0 1,-1 2,-1 5,-3 11,-6 18,-6 10,0 18,2 24,8l0 0c5,5 8,13 8,23l0 4c0,10 -3,12 -7,15 0,0 0,0 0,1l0 6c0,6 3,11 6,16 3,4 6,8 8,14 8,-1 18,-3 27,-6l0 0c4,-2 8,1 8,-1 0,0 -7,-17 -14,-35 -8,-21 -17,-44 -19,-51l-1 -6 5 -3c9,-7 22,-14 36,-19 12,-3 24,-6 37,-6l7 0c7,0 10,1 13,2 2,1 3,1 5,2l8 1 -1 8c-1,8 -3,13 -5,17 -2,3 -3,6 -3,11l0 1 0 1 -5 52c0,0 8,1 17,2 12,2 26,4 37,11 4,3 14,15 22,27 8,11 16,24 16,28 0,9 -5,14 -10,19l0 0c-1,1 -2,2 -3,4 0,30 -2,34 -7,46l0 0c-1,4 -3,9 -6,17l0 0c0,0 0,8 0,19 0,18 0,44 0,49 0,14 0,31 1,47 1,16 2,32 6,41 8,24 5,45 2,65 -2,10 -3,19 -3,28l0 6c0,5 1,6 1,8l23 0 1 -129 0 -9 9 0 100 0 0 -194c0,-3 0,-6 1,-8l-19 0 -9 0 0 -9 0 -92 0 -7 7 -1c2,-1 4,-1 5,-2 4,-1 6,-2 13,-2l2 0 0 -89 0 -9 8 0 36 0 9 0 0 9 0 90 16 3 7 1 0 7 0 20 0 9 -6 0 0 17 0 0 0 18 5 0 0 -20 0 -7 7 -2 23 -6 0 -101 0 -9 8 0 40 0 8 0 0 9 0 103 18 0 9 0 0 9 0 23 0 8 -7 0 0 21 0 0 0 24 7 0 0 9 0 23 0 6 -7 2 -20 5 0 129 59 0c2,-25 14,-50 30,-70 15,-18 35,-31 58,-34l0 -2c0,-1 0,-1 0,-1 -4,-3 -7,-5 -7,-12 0,-9 4,-13 8,-17 1,-1 2,-2 2,-2l0 -30 0 -9 9 0 3 0 9 0 0 9 0 33 0 0c3,4 7,8 7,13 0,10 -4,12 -7,15 0,0 0,0 0,1l0 2c25,2 36,11 45,19l3 3 0 -49 -23 -6 -6 -2 0 -6 0 -99c0,-8 3,-13 9,-17 5,-3 12,-5 19,-5l1 0 0 -106 0 -9 9 0 39 0 9 0 0 9 0 107 22 3 8 1 0 7 0 23 0 5 0 4 0 4 0 7 0 9 -7 0 0 25 7 0 -1 9 0 25 0 8 -7 1 -22 3 0 144 14 0 9 0 0 7 24 -1 1 0 75 4 1 0 0 -211c0,-2 -5,-2 -10,-3 -3,0 -7,-1 -10,-2l-7 -1 0 -7 0 -92 0 -7 7 -2c3,0 7,-1 10,-1 5,-1 10,-1 10,-3l0 -79c0,-7 -1,-9 -3,-14l0 0 -2 -4 -1 -5 3 -4 18 -19 -2 -15 -5 -30 20 23c1,1 4,7 8,14 7,13 17,34 17,34l0 0 0 101 16 2 7 2 0 7 0 20 0 8 -1 0 0 0 8 14 -13 0 0 21 6 0 0 9 0 22 0 8 -7 1 -16 3 0 220 11 0 9 0 0 9 0 4 47 0 9 0 0 9 0 62c0,9 -3,13 -5,17 -1,2 -2,4 -2,9l0 74 9 0 0 -648 0 -9 9 0 1 0 0 -32 1 -5 5 -3 55 -21 1 -1 2 0c31,0 59,-7 84,-13 20,-5 39,-10 57,-10 10,0 21,5 32,9 9,4 18,8 24,8l3 0c1,0 2,0 2,0 0,-1 0,-2 0,-4l-6 -14 -6 -11 13 -1 1 0 14 -72 1 -7 8 0 16 0 9 0 0 10 -1 12 3 54 2 0 9 0 0 8 0 14 0 8 -9 0 -1 0 0 21 151 48 6 1 0 7 0 46c0,2 3,3 7,3 3,0 8,-1 11,-1 4,-1 7,-1 10,-1 5,0 9,2 13,3 2,2 5,3 9,4l7 1 0 7 -4 430 0 0 0 26 0 9 -9 0 -14 0 0 124 2 0 0 -24c0,-10 4,-13 7,-16 0,0 0,1 0,-1l0 -21 -7 0 0 -8 0 -20 0 -8 8 0 51 -4 0 -388c0,-11 6,-16 12,-20 2,-2 5,-4 5,-7l0 0 1 -50 0 -17 14 10 10 7c6,-5 12,-13 16,-22 5,-12 9,-26 10,-42l1 -20 14 15 14 15 5 4c5,1 13,-2 20,-6 7,-4 13,-8 18,-13l1 -6 4 -33 0 -5 4 -2 1 0 1 0c2,-2 7,-3 8,-4l3 -5 6 1 32 4 8 1 0 8 0 33c13,4 34,15 54,25 22,11 42,21 46,21 1,0 0,-1 2,-3 7,-5 18,-14 28,-16l11 -2 0 11 0 76 8 0 8 0 0 9 0 210 10 -20 3 -6 6 1 5 0 5 1 2 5 9 26c15,-3 34,-10 51,-16l0 0c8,-3 15,-6 21,-8 8,-2 14,-5 20,-6l0 0c9,-3 13,-4 13,-4 0,0 0,-3 -1,-8 -1,-8 -4,-21 -4,-41l0 -39c0,-17 13,-19 27,-20 3,-1 7,-1 10,-2l8 -2 2 8 9 23c1,-1 2,-2 4,-2 0,0 0,0 0,-2l0 -49c0,-5 -1,-8 -2,-11 -1,-3 -1,-6 -2,-11l0 -7 6 -2 4 -1 0 -63 0 -9 9 0 138 0 8 0 0 9 0 61c4,1 7,2 9,4l0 0c2,2 4,4 5,7 1,3 1,7 -1,10 -2,2 -4,4 -6,5 0,4 0,9 0,14 -1,22 -2,47 2,49l1 0 10 -25 2 -7 8 1c2,1 4,2 6,2 2,1 4,1 8,1l13 0 8 0 1 9 1 13 0 0 0 0 -1 36 0 0 0 4c0,6 1,9 2,12 0,2 1,4 1,5l1 4 -2 2c0,1 -1,3 -2,4 -2,3 -3,6 -3,12l0 0 0 9 97 29 13 -25 8 -15 8 15 14 25 2 4 -2 5 -1 1 0 0c-1,2 -1,2 -1,4l10 3 42 12 6 2 1 6 0 9 5 6 9 0c9,0 15,1 21,3l0 -231 0 -9 8 0 16 0 -1 -5 -2 -11 10 0 110 0 0 -391c-5,-2 -11,-4 -15,-8 -7,-5 -12,-12 -12,-19l0 0 0 -36 0 -6 7 -2 16 -5 0 0c-4,-2 -8,-4 -11,-7 -5,-4 -8,-9 -8,-16 0,-2 0,-4 0,-6l0 0 -8 5 -4 -8c-1,0 -1,-1 -1,-1l0 0c-3,-4 -4,-5 -4,-13l0 0 0 -14 1 -10 10 2 12 2 0 -8 9 0 10 0c8,0 14,1 18,1l0 0c0,-2 0,-5 -1,-11 0,-3 0,-7 0,-11 0,-14 0,-28 0,-42l0 -20 0 -63c0,-21 0,-41 0,-62l0 -3 2 -2 13 -20 3 -4 4 0 23 0 8 0 1 9c0,6 2,8 3,10l0 0c2,4 3,7 3,16l0 199c2,0 3,-1 5,-1 6,0 7,1 10,2l0 0c1,1 2,1 5,2l7 2 0 6 0 14c0,4 -1,7 -2,10 1,0 1,0 2,1 7,4 13,10 13,18l0 3c0,6 -5,13 -8,19 3,4 5,7 5,14l0 14 12 0 0 -30 0 -9 8 0 30 0 9 0 0 7 1 0 9 0 -1 8 0 46 3 21 2 0 9 0 0 9 0 631 1 0 8 0 0 9 0 19 0 1 0 8 0 1 0 17 0 1 0 7 0 1 0 23 0 8 40 -3 1 0 4 0 -13 -55 -2 -11 11 0 4 0 -3 -23 -1 -10 10 0 13 0c3,0 6,-5 9,-10l2 -3 -3 -19 -2 -11 11 1c10,0 14,3 18,5 1,1 2,1 4,1 0,0 12,-10 21,-18 4,-4 7,-6 7,-6l0 -16 0 -11 10 2c8,2 15,6 19,9 5,-2 22,-9 37,-15 6,-3 12,-6 16,-7l0 -14 0 -8 7 -1 11 -2 5 -1 3 3 11 11 48 -11 1 0 0 0 25 -3 0 -11 0 -4 3 -3 3 -3 8 -5 5 7 11 15c7,0 14,-1 21,-1 10,-1 20,-2 33,-2 7,0 13,1 18,1 4,0 7,0 9,0 7,1 10,-1 11,-9l0 -8 8 0 13 0 9 0 0 8 0 11 82 14 16 -14 7 -6 6 7 2 2 2 3 0 3 0 15 63 22 20 -9 12 -5 0 13 0 17c0,0 4,3 10,7 12,9 26,17 27,17 2,0 3,-1 5,-2 4,-2 8,-4 18,-5l9 -1 0 10 0 19c0,1 2,4 5,8 5,5 9,10 9,10 5,0 6,0 7,-1 2,-1 5,-2 13,-2l11 -1 -2 11 -3 24 0 2 10 0 9 0 0 9 0 16c0,13 -3,23 -5,32 -2,5 -3,10 -4,15l28 3 7 1 0 8 5 -1 0 18 -12 1 -10 1 0 -10 0 -1 -28 -3 -8 -1 0 -8c0,-11 2,-20 5,-28 2,-8 5,-16 5,-27l0 -8 -8 0 -7 0 -1 -6 -4 -10 0 -2 0 -2 2 -13c-2,0 -4,0 -10,0 -3,0 -14,-7 -22,-16 -5,-6 -9,-13 -9,-19l0 -8c-1,0 -2,0 -2,1 -4,2 -7,3 -13,3 -2,0 -23,-10 -37,-20 -10,-6 -17,-14 -17,-21l0 -4 -11 5 -3 1 -4 -1 -71 -25 -5 -2 -1 -6 0 -7 -8 7 -3 2 -4 -1 -93 -15 -7 -1 0 -7 0 -1c-5,8 -13,9 -24,9 -4,0 -7,0 -10,-1 -6,0 -11,0 -17,0 -12,-1 -22,0 -31,1 -10,1 -18,2 -28,2l-4 0 -3 -4 0 -1 0 7 -8 1 -33 3 -52 12 -4 1 -4 -3 -11 -11 0 12 0 6 -5 2c-1,1 -11,5 -22,10 -18,7 -43,17 -44,17 -3,0 -4,-1 -7,-2l0 0c-1,-1 -2,-2 -4,-3l0 3c0,6 -5,12 -12,19 -12,11 -33,23 -33,23 -6,0 -9,-2 -12,-4l1 10 1 3 -2 3c-1,2 -2,3 -3,5 -5,9 -11,19 -24,19l-4 0 3 23 1 9 -10 1 -2 0 12 54 3 10 -11 1 -14 0 0 0 -50 4 -9 1 0 -10 0 -1 -24 0 -9 0 0 -9 0 -7 0 -8 9 0 24 0 0 -6 -24 0 -9 0 0 -9 0 -9 0 -8 0 -1 0 -8 0 -10 0 -8 9 0 24 0 0 -3 -1 0 -9 0 0 -8 0 -631 -1 0 -8 0 -1 -8 -4 -29 0 -1 0 -1 1 -37 -1 0 -9 0 0 -6 -12 0 0 30 0 9 -9 0 -29 0 -9 0 0 -9 0 -23c0,-2 0,-2 -1,-3 -1,-1 -3,-3 -4,-5l-3 -4 3 -5c0,-1 2,-3 3,-6l0 0c2,-4 5,-9 5,-10l0 -3c0,-1 -1,-2 -4,-3 -4,-2 -9,-4 -12,-5l-16 -4 12 -11c3,-2 4,-3 6,-4 1,0 1,-1 1,-2l0 -7c-1,0 -1,-1 -2,-1l0 0c0,0 0,0 0,0 -2,2 -6,4 -13,6l-11 3 0 -11 0 -214c0,-5 -1,-6 -2,-8l0 0c-1,-2 -2,-5 -3,-9l-11 0 -9 14c0,19 0,39 0,59l0 63 0 20c0,14 0,28 0,42 0,4 0,7 0,11 0,15 0,21 -4,26 -4,5 -9,4 -16,3 -4,-1 -8,-2 -15,-2l-1 0 0 1 0 11 -2 -1c1,16 -3,19 -5,22l0 0c-1,0 0,0 0,1 0,1 1,2 2,3 3,2 8,4 11,5l7 2 0 7 0 13 0 6 -7 2 -16 5 0 29 0 0c0,1 2,3 5,5 4,4 9,6 13,6l8 1 0 8 0 407 0 9 -9 0 -107 0 1 5 2 11 -10 0 -18 0 0 234 0 11 -11 -3c-4,0 -7,-2 -11,-3 -4,-1 -8,-3 -16,-3l-13 0 -4 0 -3 -3 -9 -11 -2 -2 0 -3 -1 -6 -25 -7 0 276 0 9 -9 0 -6 0 -9 0 0 -9 -3 -126 -4 0 0 -8 0 -37c0,-3 0,-5 1,-7l-4 0 0 -9 0 -39c0,-7 2,-10 4,-13 -2,-4 -4,-6 -4,-14l0 -42c0,-7 1,-10 2,-13l-4 -8 -9 18 -3 6 -7 -2 -110 -34 -6 -1 0 -7 -1 -15 0 0c0,-10 3,-15 6,-21l0 0 0 -1c-2,-5 -3,-9 -3,-17l0 -4 1 0 0 -35 0 -5 -5 0c-5,0 -8,-1 -11,-1l-7 16 4 1 0 8 0 13 0 12 -12 -4 -19 -6 -8 -3 2 -8 2 -8c-7,-12 -7,-37 -6,-60 0,-6 0,-12 0,-18l0 -5 -6 0 0 -8 0 -60 -120 0 0 60 0 6 -6 2 -3 1zm-389 -157l0 -22 -23 -2c-2,1 -4,2 -7,4l-2 18 14 0 -1 1c3,-1 5,-1 8,-1 2,0 6,1 11,2zm-102 42l0 0 -2 -1c-1,-1 0,-5 0,-3 -1,1 -1,4 -1,7 -1,6 -2,14 -6,21l0 10 0 30 3 0 0 9c0,49 1,94 2,138 1,45 2,90 2,134l0 138c0,3 -1,11 -1,19 0,14 -1,31 -1,50 0,27 0,54 3,54l0 0 20 0 -9 -543 0 -8 8 -1 13 0 -17 -27 -8 -13c-3,-2 -4,-6 -5,-11l0 0c0,-1 -1,-2 -1,-3zm42 2c-4,3 -7,5 -10,8l5 5 157 9c-11,-5 -23,-12 -36,-19 -28,-15 -59,-32 -67,-32 -11,0 -34,17 -49,29zm-14 10c-1,1 -2,2 -3,2l7 0 -4 -2zm209 10c-1,1 -2,3 -4,4l4 0 -16 14c-1,1 -2,2 -4,3l0 10 0 11 11 0 9 0 0 9c0,48 1,94 2,140 1,46 1,91 1,132l0 138c0,3 0,11 0,19 -1,14 -1,31 -1,50 0,27 0,54 2,54l0 0 2 0 -4 -511 0 0 0 -9 0 -1 0 -4 0 0 0 -61 -2 2zm-176 35l108 6c-6,-4 -19,-4 -31,-4 -4,0 -8,0 -12,0 -8,-1 -16,-1 -24,-2 -14,0 -29,-1 -40,-1l-1 1zm-14 -11l1 -2 2 -5 6 0c13,-1 30,0 47,1 8,0 17,1 24,1 4,0 8,0 11,0 17,1 34,1 44,8 1,-4 2,-6 4,-8l-148 -9 9 14zm-75 12l0 0 2 0 0 -2 -2 2zm-1010 211l1 -1c0,0 0,0 0,-1 0,-1 0,-1 0,-1 -1,1 -1,1 -2,2l1 1zm-245 -22l0 -46 -6 1 -16 3 0 200 52 0 0 -147 -22 -2 -8 -1 0 -8zm-38 -57l6 -1 16 -3 0 -6 -7 0 0 -9 0 -26 0 0 1 -26 0 -9 6 0 0 -3 -16 -3 -1 0 1 7 4 36 0 1 0 1 0 19 -1 9 -8 0 -5 0 0 1c0,6 2,9 4,12l0 0zm1 -86l-2 -1 0 -7 0 -90 -19 0 0 90 0 9 -9 0 -10 0c-4,0 -5,0 -7,1l0 1 3 0 1 0 9 0 1 0 10 0 6 0 0 -3 8 0 5 0 4 0zm-47 73l0 5 11 0c1,0 2,0 3,-1 1,0 1,-2 1,-3l0 -1 -1 0 -1 0 -8 0 -1 0 -4 0zm24 -18l1 0 8 0 1 0 4 0 1 -4 -11 -9 -5 -4 0 0 0 17 1 0zm-371 6l-3 -24 -1 9 -1 4 -4 2c-2,1 -4,2 -6,3 -1,0 -2,1 -2,3 0,1 3,1 6,2 3,0 5,0 8,0l1 0 2 1 0 0zm-182 120l-4 -1c-2,1 -3,2 -5,2 -1,24 -4,43 -8,62 -2,15 -5,29 -6,43 0,22 0,41 0,58 1,17 2,34 4,53l0 3 -2 3c-1,2 -2,3 -3,5 -1,0 -2,1 -2,3l0 16c0,6 1,8 2,11l0 0c0,1 0,2 0,4l69 0 0 -93 0 -1 0 -1 3 -22 0 -1c-4,-4 -6,-7 -6,-15l0 0 0 -1 6 -68 0 -1c-4,-4 -6,-7 -6,-15l0 -3c0,-4 2,-9 4,-17 4,-12 10,-32 12,-52l-1 0c-3,6 -8,13 -14,19 -7,7 -15,12 -22,12l-3 0c-7,0 -10,0 -14,-2 -1,0 -2,-1 -4,-1zm2989 -725c0,0 0,-1 0,-1 0,0 0,1 0,1l-1 0c1,0 1,0 1,0zm0 0c-1,0 -1,1 -1,0l1 0zm-593 399l0 6c0,5 0,8 1,11 0,1 1,2 1,4 1,0 3,1 4,1l0 0c3,1 6,1 11,1l0 0 82 1 22 -3c0,-2 1,-3 1,-4 1,-3 1,-6 1,-11l0 -10c0,0 0,-1 0,-2l-2 7 -3 9 -8 -2c-2,-1 -4,-2 -6,-2 -2,-1 -4,-1 -8,-1l-6 0 0 1 -1 -1 -26 0 0 0 -39 0c-5,0 -6,0 -8,1 -2,0 -3,1 -6,1l-8 2 -2 -8 0 -1zm-18 6l0 -10c0,-7 2,-13 4,-18 2,-5 5,-10 7,-13l11 -16 5 18 6 21c2,-1 4,-1 9,-1l39 0 0 0 26 1 6 -1 0 0 1 0c5,0 8,1 10,1l6 -20 6 -25 10 24c0,0 1,2 3,5 4,7 10,18 10,24l0 10c0,7 -1,11 -2,15 -1,2 -1,4 -2,8l0 7 -7 1 -30 4 0 0 -1 0 -82 0 0 0c-7,0 -11,-1 -15,-2l0 0c-2,-1 -5,-1 -9,-2l-7 0 -1 -8c0,-4 -1,-6 -1,-8 -1,-4 -2,-8 -2,-15z"/>
    </g>
   </g>
  </g>
  <polygon class="fil1" points="0,0 4500,0 4500,1019 0,1019 "/>
 </g>
</svg>
