<?xml version="1.0" encoding="UTF-8"?>
<!DOCTYPE svg PUBLIC "-//W3C//DTD SVG 1.1//EN" "http://www.w3.org/Graphics/SVG/1.1/DTD/svg11.dtd">
<!-- Creator: CorelDRAW X8 -->
<svg xmlns="http://www.w3.org/2000/svg" xml:space="preserve" width="418px" height="400px" version="1.1" style="shape-rendering:geometricPrecision; text-rendering:geometricPrecision; image-rendering:optimizeQuality; fill-rule:evenodd; clip-rule:evenodd"
viewBox="0 0 1208 1156"
 xmlns:xlink="http://www.w3.org/1999/xlink">
 <defs>
  <style type="text/css">
   <![CDATA[
    .fil2 {fill:#FEFEFE}
    .fil1 {fill:#FFCC29}
    .fil0 {fill:#FEFEFE;fill-rule:nonzero}
   ]]>
  </style>
 </defs>
 <g id="Layer_x0020_1">
  <metadata id="CorelCorpID_0Corel-Layer"/>
  <path class="fil0" d="M578 37c309,0 560,251 560,560 0,309 -251,559 -560,559 -308,0 -559,-250 -559,-559 0,-309 251,-560 559,-560zm531 560c0,-293 -237,-531 -531,-531 -293,0 -530,238 -530,531 0,293 237,531 530,531 294,0 531,-238 531,-531z"/>
  <polygon class="fil1" points="0,624 919,624 1011,557 1208,557 1208,965 0,965 "/>
  <path class="fil2" d="M426 466l-12 29 -150 252c-9,1 -8,-1 -15,-4l-6 18 -20 2 222 -345c-5,20 -12,38 -19,48zm19 -181l-410 500 -1 -12 -11 8 0 51c84,30 227,65 257,76 27,11 315,98 330,98l12 0c23,0 277,-82 327,-95 84,-23 175,-59 259,-84l0 -28c-74,21 -101,45 -209,26 -76,-14 -186,-15 -273,-15l-67 0 -19 -65 545 -31 23 2 0 -59 -42 3 -623 -351 0 -2 -7 -18 0 -3 7 -47 5 -32 -54 26 0 19c0,16 -3,17 -7,30l-6 1 -5 -56 -32 -44 -30 13 12 25 0 -24 11 0 8 88zm-395 496l396 -484 2 23 -339 450 -44 3 -15 8zm70 -11l329 -437 2 17c0,2 0,3 0,5l-286 411 -45 4zm55 -4l276 -397c0,9 -1,19 -2,29l-236 365 -38 3zm219 -223l-17 40 -66 166 -39 -2 122 -204zm750 119l-123 9 -486 -325 1 -14 -5 -15 613 345zm-142 10l-91 7 -380 -295 2 -25 469 313zm-108 8l-15 1 -53 6 -291 -258 -2 -4 28 17 -31 -42 0 -2 364 282zm-83 8l-55 6 -201 -203c0,-2 0,-4 0,-6l-13 -36 269 239zm-67 8l-45 4 -130 -147c-4,-17 -8,-32 -11,-44l186 187zm-56 6l-41 4 -13 0c-14,0 -40,-70 -59,-132l113 128zm-176 -131l-25 -129 -22 0 -39 135 -55 162 180 -22 -39 -146zm45 142l31 -2 -76 -269 -18 1 63 270zm-149 56l-55 -2 0 37 222 0 -8 -49 -19 -2 -140 16z"/>
  <circle class="fil1" cx="954" cy="221" r="221"/>
  <circle class="fil2" cx="954" cy="221" r="121"/>
 </g>
</svg>
