<?xml version="1.0" encoding="UTF-8"?>
<!DOCTYPE svg PUBLIC "-//W3C//DTD SVG 1.1//EN" "http://www.w3.org/Graphics/SVG/1.1/DTD/svg11.dtd">
<!-- Creator: CorelDRAW X8 -->
<svg xmlns="http://www.w3.org/2000/svg" xml:space="preserve" width="1091px" height="928px" version="1.1" style="shape-rendering:geometricPrecision; text-rendering:geometricPrecision; image-rendering:optimizeQuality; fill-rule:evenodd; clip-rule:evenodd"
viewBox="0 0 956 812"
 xmlns:xlink="http://www.w3.org/1999/xlink">
 <defs>
  <style type="text/css">
   <![CDATA[
    .fil2 {fill:#FEFEFE}
    .fil1 {fill:#FFCC29}
    .fil0 {fill:#FEFEFE;fill-rule:nonzero}
   ]]>
  </style>
 </defs>
 <g id="Layer_x0020_1">
  <metadata id="CorelCorpID_0Corel-Layer"/>
  <g id="_1874768918576">
   <path class="fil0" d="M386 40c214,0 387,173 387,386 0,213 -173,386 -387,386 -213,0 -386,-173 -386,-386 0,-213 173,-386 386,-386zm367 386c0,-202 -164,-366 -367,-366 -202,0 -366,164 -366,366 0,202 164,367 366,367 203,0 367,-165 367,-367z"/>
   <g>
    <circle class="fil1" cx="197" cy="153" r="153"/>
    <circle class="fil2" cx="197" cy="153" r="83"/>
   </g>
   <rect class="fil1" x="122" y="319" width="834" height="334"/>
   <path class="fil2" d="M125 479l28 96 -11 26 -5 0c-6,0 -4,3 -14,3l-1 0 0 3 6 0 6 0 3 0 4 0 24 0 174 0 607 0 0 -6 0 -6c-3,0 -5,0 -7,0l3 -4 -5 -2 0 3 -14 -1 6 0 0 -3 -7 -1 0 4 -15 0c-9,-6 -6,0 -13,-12 -4,-6 -7,-11 -11,-16l12 -43 -10 6 0 -3 -5 0 -7 29 9 -5 0 13 -12 -1c4,14 13,22 20,33l-9 0c-2,-8 -17,-26 -17,-32 0,-16 11,-29 12,-55l2 5c1,-5 8,-24 9,-30 3,-7 5,-26 11,-29l0 -7c0,-4 12,-29 12,-41l-16 5 5 11c-13,-3 -32,-21 -33,2 5,2 12,3 16,5 1,1 8,13 8,13 0,13 -17,49 -19,64l3 13 -10 0c-6,0 -1,0 -4,1l-3 -5 0 3 -15 0 0 5 22 2 0 1 -4 21c-3,1 -6,4 -8,4l-12 0c-8,0 -1,-13 0,-17 -4,-6 28,-127 31,-143l-19 10 6 0 0 8 -45 -3 -4 0 -1 8 38 3c3,1 3,3 6,3l4 0c-4,14 -22,69 -22,78l0 4 -8 4 4 0 3 11 -18 0 -3 -3c-3,2 -3,3 -6,3l-18 0 0 5 12 -1 8 0c8,0 12,2 18,4 0,13 -4,25 -18,25l-12 0c-6,0 -10,-2 -14,-4l4 -21 24 -139 -22 12 8 0 -2 10 -24 -1 -38 5 0 5 49 -3 16 0 -19 87 -17 5 5 0 4 9 -22 -4 0 3 -24 0c-6,0 -5,-4 -5,8l23 -3 2 0 29 4 -3 27 -1 -4 -35 3 20 0 6 9 -47 0 0 4c0,5 2,9 4,12l0 -3 16 0 0 -1 -16 0c0,-9 9,-8 19,-8 14,0 18,3 27,5l5 -5c-1,4 -3,4 -3,9l0 26 -11 -1c-1,6 -7,2 -14,0l0 3c-7,-4 -7,-3 -7,-13l-1 0 0 8 -11 0 -5 1 -5 -34c-1,-5 20,-166 21,-168l-19 12 -68 12 0 -11 -6 3 -14 13c-7,0 -35,4 -37,8l-6 0c-2,0 -31,8 -32,8l-2 -12 -4 0 -4 15 -83 18 1 11 85 -19 -3 100 -1 0 0 -6c-8,0 -16,5 -21,5l-34 0c-7,0 -10,-4 -17,-4l-1 11 -1 -1 -3 -38 2 6 38 -5 0 28 1 0 0 -28 36 4 1 -12 0 -4c0,-3 0,-3 -1,-6 -10,0 -20,6 -37,6l-4 0c-9,0 -16,-1 -24,-3 -13,-4 -12,-6 -12,9l-1 0 -3 -27 -1 3 -3 -42 -4 0 0 14 -48 10 -36 -6 -2 -7 -3 0c-2,0 -6,-3 -8,-4l0 7 11 3 -60 -6 -4 -8 -7 0c0,0 -8,-4 -11,-5l2 6 17 6 -29 -2 -23 0 -7 -9 -1 1 -19 -5c1,4 2,2 2,5 0,2 -2,3 -4,3l-11 0 -36 -4 2 8c-5,1 -9,3 -14,3 -6,0 -14,-3 -20,-4l3 13 -12 -2 -8 1 2 10 -2 0 1 7zm789 -52l3 12 -10 -13 -1 1 -23 84 4 0c4,0 4,-2 7,-4l3 9c0,-7 -2,-15 4,-9l26 -84 -13 4zm-351 166l-3 0 -1 -5 0 5 -8 0 0 -24 15 0 0 20 1 0 0 -20 17 0 0 19 2 0 0 -20 -19 0 0 -6 12 -2 20 0c11,0 15,4 22,4l2 -8 4 25 1 5 4 6 -2 0 -1 -3 -2 0 0 3 -11 0 0 -4 -3 3 0 -3 -4 0c-4,0 -3,3 -3,6l-5 -5 0 -1 -2 0 -1 5 -3 -6 0 6 -32 0zm53 -50c-7,2 -16,4 -24,4l-18 0c-6,0 -14,-5 -22,-5l0 2 -1 -28 1 4c4,0 5,-1 10,-1l4 0 0 24 1 0 0 -25 15 -2 18 0c8,0 17,3 24,4l4 -7 -3 31 -2 0 0 -4 -7 3zm5 -44c-7,1 -13,4 -20,4l-27 0c-3,0 -20,-6 -22,-7l0 4 -1 -53 84 -18 -6 74 -3 -7 -5 3zm-77 82l0 12 -20 0 0 -21 -1 0 0 21 -5 0 0 -4 -8 0 0 4 -5 0 -1 -30 -1 5 -17 0 -2 -4 0 5 -14 0c-5,0 -1,1 -4,-1l0 20 -3 4 3 0 0 3 -4 0 5 -38 1 9 35 -4 24 0c5,0 2,2 7,2l5 0 0 -8 1 0 1 22 3 3zm-90 -38c-10,2 -18,7 -31,7l-12 0c-12,0 -18,-5 -26,-6l0 8 -1 0 -7 -36 4 7c12,0 17,-4 29,-4l19 -1 23 4 2 5 0 16zm-3 -59l0 14c-13,3 -14,8 -34,8l-15 0c-8,0 -16,-4 -24,-6l-1 4 -4 -20 4 -1 74 -16 0 17zm206 108l-5 -5 0 5 -5 0 0 -23 14 0 0 15c0,5 -1,6 -4,8zm44 -40l-1 -12c-5,2 -21,7 -28,7l-7 0c-12,0 -19,-5 -28,-5l0 -22 27 -4 12 0 26 4 4 -4 -5 36zm7 -52c-2,-6 -5,-1 -13,1 -4,1 -14,2 -19,2 -10,-1 -30,-5 -36,-5l0 -14 4 -57 77 -10 -13 83zm73 62l11 28 13 2c4,1 8,-1 15,-1l0 -7 -3 0 0 5 -5 0 0 -2 4 0 0 -19 3 0 2 -8c-2,1 -5,4 -5,4 -4,0 -7,-4 -15,-4l-13 0c-2,0 -5,1 -7,2zm-117 29l12 0 1 -6 2 6 0 -22 -15 0 0 22zm-275 -6l6 0 0 2 -6 0 0 7 8 1 0 -7 1 0 0 7 7 0 0 -8 -6 -2 6 0 0 -12 -7 0 0 12 -1 0 0 -12 -8 0 0 12zm-238 -78c0,0 6,23 7,26 2,5 5,22 10,25 0,8 3,8 3,11 0,6 -4,9 -6,16l3 0 -1 9 7 -3 -5 10 8 -2 -2 0 0 -12 2 0 0 -4 3 0 1 19 2 -13c7,-4 4,-8 10,-17l0 -6 -21 2c4,-18 1,-8 12,-8 3,0 4,0 7,-1l0 -4c0,-7 -7,-21 -7,-31 -5,1 -3,2 -7,2 -3,0 -3,-1 -6,-1l-13 3 2 -12c6,2 3,4 8,4l5 0 -7 -16 -13 -4c-1,2 -2,5 -2,7zm162 64l0 1c0,3 -7,15 -7,21l-4 0 0 4 15 0 0 -9c2,2 3,0 3,4l0 5 14 0 1 -4 0 3 7 0 7 0 19 0 3 -25 0 -5 -22 -2c-14,-1 -23,5 -33,5l-4 -5c0,3 1,3 1,7zm-3 -21l2 -3c6,0 13,5 18,5l11 0c13,0 21,-4 31,-6l-3 -23c-10,0 -22,-2 -32,-2 -9,0 -22,4 -30,4l-6 -6c2,10 9,12 9,31zm-105 4c-1,-2 -7,-19 -7,-20 0,-5 18,-7 24,-7 5,0 6,1 10,1 -7,-13 2,-5 -14,-5l-8 0 0 3 -2 0 0 -4c-3,1 -6,2 -11,2l-8 0 12 45c-5,10 -1,28 -10,28l0 4 5 0 0 3 7 -2 -3 2 12 0 2 -4 -10 0 4 -8c-6,-2 -4,-11 -2,-16l-4 -9 10 7c8,-6 14,-5 26,-5l-10 31 16 0 -6 -1 7 -3 9 -23 -4 -7c3,1 5,5 8,5 3,0 9,-4 18,-4l8 0c5,0 13,0 14,4l3 -10 -53 2 5 -12 -4 -2 -4 -19c8,-2 9,-6 20,-6l9 0 20 2 -1 -9 -17 2 -10 0 0 -4 -5 5 -24 0 0 -12c8,0 13,4 24,4l1 0c14,0 21,-5 28,-5l0 -8 -46 5 -8 0 0 8c0,7 -3,10 4,15l1 17 0 10c0,4 -1,5 -1,9l-38 2 3 -11z"/>
  </g>
 </g>
</svg>
