<?xml version="1.0" encoding="UTF-8"?>
<!DOCTYPE svg PUBLIC "-//W3C//DTD SVG 1.1//EN" "http://www.w3.org/Graphics/SVG/1.1/DTD/svg11.dtd">
<!-- Creator: CorelDRAW X8 -->
<svg xmlns="http://www.w3.org/2000/svg" xml:space="preserve" width="387px" height="413px" version="1.1" style="shape-rendering:geometricPrecision; text-rendering:geometricPrecision; image-rendering:optimizeQuality; fill-rule:evenodd; clip-rule:evenodd"
viewBox="0 0 143 153"
 xmlns:xlink="http://www.w3.org/1999/xlink">
 <defs>
  <style type="text/css">
   <![CDATA[
    .fil2 {fill:#FEFEFE}
    .fil1 {fill:#FFCC29}
    .fil0 {fill:#FEFEFE;fill-rule:nonzero}
   ]]>
  </style>
 </defs>
 <g id="Layer_x0020_1">
  <metadata id="CorelCorpID_0Corel-Layer"/>
  <path class="fil0" d="M72 10c39,0 71,32 71,71 0,40 -32,72 -71,72 -40,0 -72,-32 -72,-72 0,-39 32,-71 72,-71zm67 71c0,-37 -30,-68 -67,-68 -38,0 -68,31 -68,68 0,38 30,68 68,68 37,0 67,-30 67,-68z"/>
  <rect class="fil1" x="83" y="4" width="22.6041" height="94.1168"/>
  <rect class="fil1" x="44" width="22.6041" height="94.1168"/>
  <rect class="fil1" x="25" y="4" width="22.6041" height="94.1168"/>
  <rect class="fil1" x="10" y="106" width="27.0412" height="34.0158"/>
  <path class="fil2" d="M35 19l0 4c-2,0 -2,1 -2,3l0 3 0 0 0 8c0,13 -1,30 -3,40l-2 0 0 1c0,1 1,1 1,4 -1,2 -1,2 -2,4 0,2 -2,8 -2,9l-2 0 0 5c0,3 -7,16 -8,19l6 0c3,-6 5,-13 15,-13l1 0c7,0 11,8 13,13l7 0c-2,-3 -9,-17 -9,-19l0 -5 -2 0c-1,-3 -3,-10 -3,-14l0 -1c0,-1 0,-1 0,-3l-1 0c-1,-3 -2,-7 -2,-10 0,-3 -1,-7 -1,-9 -1,-6 -1,-15 -1,-21l0 -8 0 0 0 -4c0,-1 0,-2 -1,-2l-1 -5 0 -2 -1 0 0 3zm-4 76l9 0c0,-2 0,-9 -2,-9l-6 0 -1 9zm-1 3l11 0 0 -2 -11 0 0 2z"/>
  <path class="fil2" d="M104 103l1 -2 4 0 0 -1 -4 0 0 -2 4 0 0 -1 -4 0 0 -3c1,0 0,0 1,0l4 0 0 -1 -3 0 -2 0 0 -2 5 0 0 -1 -5 0 0 -3 5 0 0 -1 -5 0 0 -2 5 0 0 -1 -5 0 0 -2 5 0 0 -1 -5 0 0 -3 5 0 0 -1 -5 0 0 -2 5 0 0 -1 -6 0 0 -3 6 0 0 -1 -6 0 0 -2 5 0 0 -1 -5 0 0 -2 5 0 0 -2 -6 0 0 -2 5 0 0 -1 -5 0 0 -2 5 0 0 -1 -6 0 0 -2 5 0 0 -2 -5 0 0 -2 5 0c0,2 3,6 3,8 2,3 2,5 3,9 1,4 3,14 3,20l0 8 -1 13 -3 0c-1,0 0,0 -1,0l-3 0 0 -1 -4 0 0 -3 3 0c2,0 1,0 2,-1l-5 0zm-26 10l0 5 52 0 0 -5 -2 0c-2,0 -2,-1 -4,-1l-2 0 0 -2 -3 0 1 -17c1,-7 -2,-21 -3,-26 -1,-4 -2,-8 -4,-11 -1,-3 -5,-9 -5,-10 1,-1 3,-1 3,-3 0,-2 -4,-2 -6,-2 -3,-2 -9,-12 -12,-12l0 -15 -2 0 0 12 3 23 -2 0c-2,0 -1,-8 -1,-10 -1,-3 -1,-7 -1,-11l-1 0 0 22c-2,-1 -2,-1 -3,-1l-2 0c-1,0 -2,1 -2,1 0,2 5,3 7,3l0 57 -3 0 0 2 -8 1zm12 -47l5 0 0 -2 -5 0 0 2z"/>
  <path class="fil2" d="M68 36c1,2 -1,4 -2,4 -1,0 -2,0 -2,-1 0,-1 -1,-3 0,-3 1,0 1,1 2,2l1 -2 1 0zm-16 -28c0,2 2,1 3,0l0 1c3,0 2,-3 2,-5 -1,1 -5,3 -5,4zm6 22l-2 -11 1 0c-1,-1 -2,-2 -2,-2 0,-1 2,-1 2,-3l0 -2 -2 0 0 -1 -2 0 0 1 -2 0 0 2c0,2 0,1 1,2l1 1c0,1 -1,1 -1,2l0 1c3,1 2,6 2,8l0 1c0,1 0,1 0,2l1 3c0,3 -2,2 -2,6 0,0 3,6 3,6 0,2 -1,2 -1,4l0 0c0,1 2,1 2,3 1,-1 2,-5 5,-7 2,-1 5,-3 8,-3 0,0 -7,6 -8,8 -3,2 -6,5 -6,10l0 4 1 0c1,-5 8,-17 12,-18 -2,2 -13,20 -13,23l2 10 0 1c0,3 -1,5 -1,7l0 1c0,2 1,3 1,5 0,1 -1,1 -2,4l-1 0 0 1 -2 0 0 4 2 0 0 16 -1 0 0 6 26 0 0 -6 0 0 0 -16 1 0 0 -4 -2 0 0 -1 -1 0 0 -2c0,-1 -2,-2 -2,-5 0,-1 1,-1 1,-2l0 -1 0 -21c3,-3 1,-2 2,-6 1,-1 3,-3 4,-5l-1 -1 3 -4 -6 -3 -2 4c-5,-2 -2,-9 -6,-10l-1 -2 -1 -5 0 0c0,-2 3,-1 5,-2l-3 0 -1 -1 2 -2 -4 1 2 -4 -4 4 0 -1 -1 -3c0,0 0,0 0,2l-1 2 -3 -4 1 4 -4 -1zm10 37l0 1c0,5 0,12 2,14l0 -29c-1,2 -2,10 -2,14zm3 -11c-1,5 2,18 4,20l-3 -30 -1 10zm-5 59l3 0 0 -8 -3 0 0 8zm5 0l3 0 0 -8 -3 0 0 8zm-10 0l3 0 0 -8 -3 0 0 8z"/>
  <polygon class="fil1" points="13,125 51,88 68,93 77,84 89,95 105,84 134,110 126,148 77,148 80,130 19,131 "/>
  <path class="fil2" d="M34 126l51 0c-1,-3 -6,-7 -8,-9 -2,-2 -5,-5 -8,-8 -5,-4 -12,-12 -16,-15l-19 32zm28 -29l3 1 7 -11 0 0 -10 10zm-42 29l10 0 21 -32 -31 32zm82 -29l-3 6c5,0 8,2 9,5 1,2 5,10 5,11l13 -1 -23 -22 -1 1zm-36 2c0,1 16,17 18,18 0,-1 2,-4 3,-7 1,-3 2,-5 5,-6l-19 -18c-1,2 -7,13 -7,13zm20 21c0,3 1,4 2,7l-4 2 0 7c-1,0 -3,1 -3,2l0 2 9 0 0 -1 10 0 2 0 4 0 0 1 8 0 0 -2c0,-2 -3,-1 -3,-3l0 -6 -3 -2c0,-2 2,-4 2,-7 0,0 -3,-7 -4,-8 -1,-3 -3,-6 -7,-6l-3 0c-3,0 -5,3 -6,6 -1,1 -4,8 -4,8zm17 -5c-1,0 -1,0 -2,0 -1,0 -1,0 -2,0l0 1 -2 0 0 -1c-2,0 -1,0 -2,0 -1,0 -1,1 -1,2l-2 -2 0 2 1 0c0,3 1,6 4,6l1 0c5,0 4,-4 6,-6l0 -3 -1 1zm-10 -3c2,0 4,0 5,0l5 0c0,-3 -2,-3 -4,-3l-2 0c-2,0 -4,0 -4,3z"/>
 </g>
</svg>
