<?xml version="1.0" encoding="UTF-8"?>
<!DOCTYPE svg PUBLIC "-//W3C//DTD SVG 1.1//EN" "http://www.w3.org/Graphics/SVG/1.1/DTD/svg11.dtd">
<!-- Creator: CorelDRAW X8 -->
<svg xmlns="http://www.w3.org/2000/svg" xml:space="preserve" width="404px" height="411px" version="1.1" style="shape-rendering:geometricPrecision; text-rendering:geometricPrecision; image-rendering:optimizeQuality; fill-rule:evenodd; clip-rule:evenodd"
viewBox="0 0 159 162"
 xmlns:xlink="http://www.w3.org/1999/xlink">
 <defs>
  <style type="text/css">
   <![CDATA[
    .fil2 {fill:#FEFEFE}
    .fil1 {fill:#FFCC29}
    .fil0 {fill:#FEFEFE;fill-rule:nonzero}
   ]]>
  </style>
 </defs>
 <g id="Layer_x0020_1">
  <metadata id="CorelCorpID_0Corel-Layer"/>
  <path class="fil0" d="M80 9c42,0 76,35 76,77 0,42 -34,76 -76,76 -43,0 -77,-34 -77,-76 0,-42 34,-77 77,-77zm72 77c0,-40 -33,-73 -72,-73 -40,0 -73,33 -73,73 0,40 33,72 73,72 39,0 72,-32 72,-72z"/>
  <rect class="fil1" x="51" width="57.0861" height="45.392"/>
  <rect class="fil1" y="108" width="159.073" height="45.392"/>
  <circle class="fil1" cx="80" cy="30" r="30"/>
  <circle class="fil2" cx="80" cy="30" r="16"/>
  <polygon class="fil2" points="16,134 16,134 15,134 15,134 15,135 15,135 15,135 15,136 15,136 14,136 14,136 14,137 14,137 14,137 14,138 14,138 14,138 13,139 13,139 47,139 112,139 146,139 146,139 146,138 145,138 145,138 145,137 145,137 145,137 145,136 145,136 144,136 144,136 144,135 144,135 144,135 144,134 144,134 144,134 143,134 143,133 16,133 "/>
  <polygon class="fil2" points="47,78 47,78 47,78 46,78 46,79 46,79 46,79 46,79 46,80 46,80 46,80 46,81 46,81 46,81 46,81 48,81 58,81 60,81 60,81 61,81 61,81 61,80 61,80 61,80 61,79 61,79 61,79 61,79 60,79 60,78 60,78 60,78 59,78 59,76 59,74 59,31 47,31 "/>
  <polygon class="fil2" points="25,87 24,88 24,91 24,91 24,91 24,91 24,92 23,92 23,92 23,92 23,92 23,92 23,93 23,93 23,94 23,94 24,94 24,94 40,94 40,94 41,94 41,93 41,93 41,92 41,92 41,92 40,92 40,92 40,92 40,91 39,91 39,91 39,91 39,55 25,55 "/>
  <polygon class="fil2" points="47,130 59,130 59,83 47,83 "/>
  <polygon class="fil2" points="25,130 39,130 39,96 25,96 "/>
  <polygon class="fil2" points="101,130 122,130 122,123 122,108 112,108 101,108 "/>
  <polygon class="fil2" points="73,130 94,130 94,108 73,108 "/>
  <polygon class="fil2" points="70,105 70,105 70,106 70,106 71,106 71,106 72,107 76,107 90,107 94,107 95,106 96,106 96,106 96,106 96,105 96,105 96,105 96,105 94,105 94,92 94,85 73,85 73,105 "/>
  <polygon class="fil2" points="101,105 99,105 99,105 99,105 99,106 99,106 99,106 100,106 101,107 111,107 116,107 123,107 124,106 124,106 124,106 124,106 124,105 124,105 124,105 124,105 122,105 122,99 122,86 117,85 101,85 101,105 "/>
  <polygon class="fil2" points="108,63 107,64 107,64 106,64 106,64 106,64 105,64 105,64 105,65 104,65 104,65 104,65 103,65 103,65 103,65 103,65 102,66 102,66 102,66 102,66 102,66 102,66 102,67 101,67 101,67 101,67 101,68 101,69 101,82 99,82 99,83 99,83 99,83 99,83 99,83 99,84 99,84 101,84 123,84 124,84 124,84 125,83 125,83 124,83 124,83 124,82 123,82 122,82 122,77 122,69 122,68 122,67 122,67 122,67 122,66 122,66 121,66 121,66 121,66 121,66 121,65 120,65 120,65 120,65 120,65 119,65 119,65 119,65 118,64 118,64 118,64 117,64 117,64 116,64 115,64 114,63 112,63 110,63 "/>
  <polygon class="fil2" points="80,63 79,64 79,64 78,64 78,64 77,64 77,64 76,64 76,65 76,65 75,65 75,65 75,65 75,65 75,65 74,65 74,66 74,66 74,66 74,66 74,66 73,66 73,66 73,67 73,67 73,67 73,67 73,67 73,67 73,82 72,82 71,83 71,83 70,83 70,83 71,84 71,84 95,84 96,84 96,83 96,83 96,83 96,83 96,83 95,82 94,82 94,67 94,67 94,67 94,67 93,67 93,67 93,66 93,66 93,66 93,66 93,66 92,66 92,66 92,65 92,65 92,65 92,65 91,65 91,65 91,65 90,65 90,64 90,64 89,64 89,64 88,64 88,64 87,64 86,63 85,63 81,63 "/>
  <polygon class="fil2" points="83,52 83,52 82,52 82,52 82,53 82,53 82,53 82,54 82,61 85,61 85,55 110,55 110,61 113,61 113,54 113,53 113,53 112,52 112,52 112,52 111,52 104,52 89,52 "/>
  <polygon class="fil2" points="25,49 25,50 25,50 24,51 24,51 24,51 24,51 23,51 23,51 23,51 23,51 23,52 23,52 23,53 23,53 23,53 23,53 23,53 24,53 24,54 27,54 37,54 40,54 40,53 40,53 40,53 41,53 41,53 41,53 41,52 41,51 41,51 40,51 40,51 40,51 40,51 39,51 39,51 39,50 39,49 38,49 25,49 "/>
  <polygon class="fil2" points="125,120 133,120 133,130 136,130 136,119 136,118 136,118 136,118 136,117 136,117 136,117 135,117 125,117 "/>
  <polygon class="fil2" points="47,26 47,26 47,26 47,26 46,26 46,26 46,27 46,27 46,27 46,27 46,28 46,28 46,29 46,29 46,29 46,29 48,29 59,29 60,29 61,29 61,29 61,29 61,28 61,28 61,27 61,27 61,27 61,27 61,27 60,26 60,26 60,26 60,26 59,26 59,24 47,24 "/>
  <polygon class="fil2" points="48,5 48,5 48,5 47,5 47,5 47,6 47,6 47,6 47,6 47,7 46,7 46,7 46,8 46,8 46,9 46,10 46,10 46,11 47,11 47,11 47,11 47,11 47,12 47,12 47,12 48,12 48,12 48,12 48,13 48,13 48,13 48,13 48,13 49,13 49,14 49,14 49,14 49,14 49,14 49,14 50,14 50,14 50,15 50,15 50,15 50,15 50,15 51,15 51,15 51,16 51,16 51,16 51,16 51,16 51,16 52,16 52,17 52,17 52,17 52,17 52,17 52,17 53,18 53,18 53,18 53,19 53,19 53,19 53,20 53,21 54,22 54,22 54,21 54,21 54,21 54,21 54,21 55,20 55,20 55,20 55,20 55,19 55,18 55,17 55,17 55,17 55,16 54,16 54,16 54,16 54,15 54,15 54,15 54,15 53,14 53,14 53,14 53,14 53,14 53,14 53,14 53,13 52,13 52,13 52,13 52,13 52,12 52,12 52,12 51,12 51,12 51,12 51,12 51,11 51,11 51,11 51,11 50,11 50,11 50,10 50,10 50,10 50,10 50,10 49,9 49,9 49,9 49,9 49,9 49,8 49,8 48,7 48,6 48,4 48,4 "/>
  <polygon class="fil2" points="26,29 26,29 26,30 26,30 26,30 26,30 25,30 25,31 25,31 25,31 25,31 25,32 25,32 24,33 24,34 25,35 25,35 25,35 25,35 25,36 25,36 25,36 26,36 26,36 26,37 26,37 26,37 26,37 26,37 26,37 27,38 27,38 27,38 27,38 27,38 27,38 27,38 28,39 28,39 28,39 28,39 28,39 28,39 28,39 29,40 29,40 29,40 29,40 29,40 29,40 29,40 29,41 30,41 30,41 30,41 30,41 30,41 30,41 30,41 31,42 31,42 31,42 31,42 31,43 31,43 31,43 31,43 32,44 32,45 32,46 32,46 32,46 32,46 32,46 33,46 33,46 33,45 33,45 33,45 33,45 33,44 34,43 34,43 33,42 33,42 33,41 33,41 33,41 33,40 33,40 32,40 32,40 32,40 32,39 32,39 32,39 32,39 31,39 31,39 31,38 31,38 31,38 31,38 31,38 31,38 30,37 30,37 30,37 30,37 30,37 30,37 30,36 29,36 29,36 29,36 29,36 29,36 29,35 29,35 29,35 28,35 28,35 28,35 28,34 28,34 28,34 28,34 27,34 27,33 27,33 27,33 27,32 27,31 27,29 26,29 "/>
  <polygon class="fil2" points="47,130 47,130 47,83 59,83 59,130 59,130 59,83 47,83 "/>
  <polygon class="fil2" points="25,87 25,55 39,55 39,91 39,91 39,91 39,55 25,55 "/>
  <polygon class="fil2" points="47,78 47,31 59,31 59,74 59,31 47,31 "/>
  <polygon class="fil2" points="73,130 73,130 73,108 94,108 94,108 73,108 "/>
 </g>
</svg>
