<?xml version="1.0" encoding="UTF-8"?>
<!DOCTYPE svg PUBLIC "-//W3C//DTD SVG 1.1//EN" "http://www.w3.org/Graphics/SVG/1.1/DTD/svg11.dtd">
<!-- Creator: CorelDRAW X8 -->
<svg xmlns="http://www.w3.org/2000/svg" xml:space="preserve" width="244px" height="244px" version="1.1" style="shape-rendering:geometricPrecision; text-rendering:geometricPrecision; image-rendering:optimizeQuality; fill-rule:evenodd; clip-rule:evenodd"
viewBox="0 0 16 16"
 xmlns:xlink="http://www.w3.org/1999/xlink">
 <defs>
  <style type="text/css">
   <![CDATA[
    .fil0 {fill:#FEFEFE}
   ]]>
  </style>
 </defs>
 <g id="Layer_x0020_1">
  <metadata id="CorelCorpID_0Corel-Layer"/>
  <path class="fil0" d="M0 6l0 0c0,2 1,3 2,4 0,1 1,1 1,1 1,1 2,1 3,1l0 0c1,0 2,0 2,0 1,-1 1,-1 2,-1 0,0 0,0 0,0 0,0 0,1 0,1l0 0c0,0 1,1 1,1 0,0 1,1 1,1 0,0 1,1 1,1 0,0 1,1 1,1 1,0 2,-1 2,-2 0,0 -1,-1 -1,-1 0,0 -1,-1 -1,-1 0,0 -1,-1 -1,-1 0,0 -1,-1 -1,-1 0,0 -1,0 -1,0 0,0 0,0 0,0 0,-1 0,-1 1,-2 0,0 0,-1 0,-2l0 0c0,-3 -3,-6 -6,-6l0 0c-1,0 -2,0 -3,1 0,0 -1,0 -1,1 -1,1 -2,2 -2,4zm2 0l0 0c0,1 1,1 1,2 0,0 0,0 0,1 1,0 2,1 3,1l0 0c0,0 2,-1 2,-1l0 0 -1 0c0,0 -1,0 -2,0 0,-1 -1,-1 -1,-1 0,-1 0,-1 0,-1 -1,0 -1,0 -1,-1 0,0 0,-1 0,-2 0,1 0,1 0,1 -1,1 -1,1 -1,1zm-1 0l0 0c0,2 1,3 2,4 0,0 2,1 3,1 3,0 5,-2 5,-5l0 0c0,-1 0,-2 0,-2 -1,-1 -1,-1 -1,-1 -1,-1 -2,-2 -4,-2l0 0c-3,0 -5,2 -5,5z"/>
 </g>
</svg>
