<?xml version="1.0" encoding="UTF-8"?>
<!DOCTYPE svg PUBLIC "-//W3C//DTD SVG 1.1//EN" "http://www.w3.org/Graphics/SVG/1.1/DTD/svg11.dtd">
<!-- Creator: CorelDRAW X8 -->
<svg xmlns="http://www.w3.org/2000/svg" xml:space="preserve" width="2609px" height="1397px" version="1.1" style="shape-rendering:geometricPrecision; text-rendering:geometricPrecision; image-rendering:optimizeQuality; fill-rule:evenodd; clip-rule:evenodd"
viewBox="0 0 1163 623"
 xmlns:xlink="http://www.w3.org/1999/xlink">
 <defs>
  <style type="text/css">
   <![CDATA[
    .fil0 {fill:#F1BF43}
    .fil1 {fill:black}
    .fil2 {fill:#F1BF43;fill-rule:nonzero}
   ]]>
  </style>
 </defs>
 <g id="Layer_x0020_1">
  <metadata id="CorelCorpID_0Corel-Layer"/>
  <path class="fil0" d="M1043 243l0 43c24,-12 101,-92 113,-131 54,-171 -214,-219 -230,-50 -4,42 13,73 33,94 42,44 75,25 84,44zm-23 -217c-119,32 -72,214 50,180 116,-33 69,-213 -50,-180zm47 120l37 1 0 -41 -37 0 0 40zm-82 0l38 1 0 -40 -38 -1 0 40zm76 -81l-34 0 -2 38 38 0 -2 -38zm-76 81l0 -40 38 1 0 40c4,-11 3,-24 3,-40l37 0c0,15 -2,28 4,39l0 -40 37 0 0 41c5,-12 4,-26 2,-42l-39 -3c-1,-8 0,-10 -1,-17 -1,-20 0,-15 -5,-20l2 38 -38 0 2 -38c-9,5 -4,27 -6,38 -16,0 -24,-2 -39,4 -1,15 -3,28 3,39z"/>
  <path class="fil1" d="M768 375l-4 159 -45 0 0 -158 -31 -3 -1 -38c16,0 17,2 31,-4l2 -26c-6,11 -4,10 -5,26l-29 0 -3 45 32 2 0 158 52 1 1 -162z"/>
  <path class="fil1" d="M617 254c-32,17 -12,67 26,52 32,-14 12,-72 -26,-52z"/>
  <path class="fil1" d="M677 536c0,-100 -22,28 -22,-105 0,-33 0,-66 0,-100l-49 1c0,50 -10,176 14,198 14,12 39,14 57,6z"/>
  <path class="fil1" d="M215 377c-74,32 -30,145 48,114 70,-29 29,-148 -48,-114zm85 136c13,16 14,24 38,27 39,5 32,-6 32,-36 -23,-20 -25,16 -25,-73 0,-33 0,-66 1,-99 -68,-1 -39,-1 -55,22 -21,-30 -72,-36 -110,-14 -126,71 -5,280 119,173z"/>
  <path class="fil1" d="M720 305l-2 26c-14,6 -15,4 -31,4l1 38 31 3 0 158 45 0 4 -159 35 1 1 -44 -37 0 3 -37c12,-4 26,-6 41,-5l1 -40c-49,-12 -94,10 -92,55z"/>
  <path class="fil1" d="M26 313l0 16 -26 3 0 38c8,5 21,6 25,8 8,109 -28,166 92,163l0 -46c-35,5 -43,-2 -43,-36 -1,-21 -2,-63 1,-82l44 -1 0 -44 -44 -1 -1 -77 -48 0 0 59z"/>
  <path class="fil1" d="M459 432l-74 104 50 0 53 -69c16,16 33,49 50,68l51 1c-19,-38 -55,-72 -74,-109l59 -81c9,-13 3,-2 8,-14 -60,0 -47,-6 -72,28 -6,8 -15,22 -22,30 -58,-55 -10,-58 -96,-58 11,27 56,71 67,100z"/>
  <path class="fil1" d="M846 578c1,28 -9,43 20,45 66,3 75,-52 94,-102 12,-32 26,-65 37,-94 11,-30 26,-65 35,-94l-44 -2c-21,17 -40,121 -61,148 -10,-15 -22,-54 -31,-74 -33,-84 -14,-73 -76,-73 36,136 146,253 26,246z"/>
  <path class="fil2" d="M196 256c-7,0 -13,-2 -19,-4 -6,-3 -11,-7 -15,-11 -4,-5 -8,-10 -10,-16 -2,-6 -3,-12 -3,-19 0,-7 1,-13 3,-19 3,-6 6,-12 10,-16 4,-5 9,-9 15,-11 6,-3 12,-4 19,-4 7,0 14,1 19,4 6,2 11,6 16,11 4,4 7,10 10,16 2,6 3,12 3,19 0,7 -1,13 -3,19 -3,6 -6,11 -10,16 -4,4 -9,8 -15,11 -6,2 -13,4 -20,4zm-35 -50c0,5 1,10 3,15 2,5 4,9 8,12 3,4 6,7 11,9 4,2 9,3 13,3 5,0 10,-1 14,-4 4,-2 8,-4 11,-8 3,-3 6,-7 8,-12 2,-5 3,-10 3,-15 0,-6 -1,-11 -3,-15 -2,-5 -5,-9 -8,-13 -3,-3 -7,-6 -11,-8 -4,-2 -9,-3 -14,-3 -4,0 -9,1 -13,3 -4,2 -8,5 -11,8 -4,4 -6,8 -8,13 -2,4 -3,10 -3,15z"/>
  <path id="1" class="fil2" d="M314 168c-9,1 -16,3 -23,7 -6,5 -10,11 -13,19l0 60 -13 0 0 -97 12 0 0 23c4,-7 9,-13 15,-17 6,-4 12,-6 19,-6 1,0 2,0 3,0l0 11z"/>
  <path id="2" class="fil2" d="M365 256c-6,0 -13,-2 -18,-5 -6,-2 -11,-6 -15,-11 -4,-4 -7,-9 -9,-15 -3,-6 -4,-13 -4,-19 0,-7 1,-13 3,-20 3,-6 6,-11 10,-16 3,-4 8,-8 13,-10 6,-3 12,-4 18,-4 8,0 16,2 22,6 6,4 11,9 15,16l0 -59 12 0 0 119c0,3 2,5 5,5l0 11c-2,0 -4,0 -5,0 -3,0 -5,-1 -8,-3 -2,-1 -3,-4 -3,-6l0 -10c-4,6 -9,11 -15,15 -7,4 -14,6 -21,6zm3 -11c3,0 6,-1 10,-2 3,-2 7,-3 10,-5 3,-3 6,-5 8,-8 2,-3 3,-6 4,-9l0 -30c-2,-3 -3,-7 -6,-10 -2,-2 -5,-5 -8,-7 -3,-2 -6,-4 -9,-5 -4,-2 -7,-2 -11,-2 -5,0 -10,1 -14,3 -4,2 -8,5 -11,9 -3,4 -5,8 -7,12 -1,5 -2,10 -2,15 0,5 1,10 3,15 2,4 4,8 7,12 4,3 7,6 12,8 4,2 9,4 14,4z"/>
  <path id="3" class="fil2" d="M482 256c-7,0 -13,-2 -19,-4 -6,-3 -11,-7 -15,-11 -4,-5 -8,-10 -10,-16 -3,-6 -4,-13 -4,-20 0,-7 1,-13 4,-19 2,-6 5,-11 10,-16 4,-4 9,-8 15,-10 6,-3 12,-4 19,-4 7,0 14,1 20,4 5,2 11,6 15,10 4,5 7,10 10,16 2,6 3,12 3,19 0,1 0,2 0,3 0,1 0,2 0,2l-83 0c1,5 2,10 4,14 2,5 5,9 8,12 3,3 7,6 11,7 4,2 8,3 13,3 3,0 6,0 9,-1 3,-1 6,-2 9,-4 2,-1 5,-3 7,-5 2,-2 4,-5 5,-7l11 3c-2,3 -4,6 -7,9 -2,3 -6,6 -9,8 -4,2 -8,4 -12,5 -4,1 -9,2 -14,2zm36 -56c0,-5 -2,-9 -4,-14 -2,-4 -4,-8 -7,-11 -4,-3 -7,-5 -11,-7 -4,-2 -9,-3 -14,-3 -4,0 -9,1 -13,3 -4,2 -8,4 -11,7 -3,3 -6,7 -7,11 -2,5 -4,9 -4,14l71 0z"/>
  <path id="4" class="fil2" d="M598 168c-9,1 -16,3 -23,7 -6,5 -10,11 -13,19l0 60 -13 0 0 -97 12 0 0 23c4,-7 9,-13 15,-17 6,-4 12,-6 19,-6 1,0 2,0 3,0l0 11z"/>
 </g>
</svg>
