<svg width="1006" height="266" viewBox="0 0 1006 266" version="1.1" xmlns="http://www.w3.org/2000/svg" xmlns:xlink="http://www.w3.org/1999/xlink">
<g id="Canvas" fill="none">
<g id="Uber">
<rect id="Rectangle" width="1006" height="266" rx="20" fill="black"/>
<g id="uber">
<g id="Group">
<g id="Group_2">
<path id="Vector" d="M 96.349 0C 45.0998 0 3.15324 40.0716 2.25033e-09 90.4688L 66.1455 90.4688L 66.1455 72.375C 66.1455 69.0458 68.8518 66.3438 72.1862 66.3438L 120.512 66.3438C 123.846 66.3438 126.552 69.0458 126.552 72.375L 126.552 120.625C 126.552 123.954 123.846 126.656 120.512 126.656L 72.1862 126.656C 68.8518 126.656 66.1455 123.954 66.1455 120.625L 66.1455 102.531L 2.25033e-09 102.531C 3.15324 152.928 45.0998 193 96.349 193C 149.64 193 193 149.708 193 96.5C 193 43.2923 149.64 0 96.349 0Z" transform="translate(85 36)" fill="white"/>
</g>
</g>
</g>
<path id="Get a ride" d="M 61.0312 80.5625C 58.5 83.375 54.7969 85.6406 49.9219 87.3594C 45.0469 89.0781 39.7031 89.9375 33.8906 89.9375C 24.9531 89.9375 17.8125 87.2031 12.4688 81.7344C 7.125 76.2656 4.26562 68.6562 3.89062 58.9062L 3.84375 53C 3.84375 46.2812 5.03125 40.4219 7.40625 35.4219C 9.78125 30.3906 13.1719 26.5312 17.5781 23.8438C 22.0156 21.125 27.1406 19.7656 32.9531 19.7656C 41.4531 19.7656 48.0469 21.7188 52.7344 25.625C 57.4531 29.5 60.2031 35.2969 60.9844 43.0156L 45.1406 43.0156C 44.5781 39.2031 43.3594 36.4844 41.4844 34.8594C 39.6094 33.2344 36.9531 32.4219 33.5156 32.4219C 29.3906 32.4219 26.2031 34.1719 23.9531 37.6719C 21.7031 41.1719 20.5625 46.1719 20.5312 52.6719L 20.5312 56.7969C 20.5312 63.6094 21.6875 68.7344 24 72.1719C 26.3438 75.5781 30.0156 77.2812 35.0156 77.2812C 39.2969 77.2812 42.4844 76.3281 44.5781 74.4219L 44.5781 63.8281L 33.1406 63.8281L 33.1406 52.5312L 61.0312 52.5312L 61.0312 80.5625ZM 94.4062 89.9375C 86.625 89.9375 80.3281 87.625 75.5156 83C 70.7031 78.3438 68.2969 72.2969 68.2969 64.8594L 68.2969 63.5469C 68.2969 58.3594 69.25 53.7812 71.1562 49.8125C 73.0938 45.8438 75.9062 42.7812 79.5938 40.625C 83.2812 38.4375 87.6562 37.3438 92.7188 37.3438C 99.8438 37.3438 105.469 39.5625 109.594 44C 113.719 48.4062 115.781 54.5625 115.781 62.4688L 115.781 68.6094L 84.375 68.6094C 84.9375 71.4531 86.1719 73.6875 88.0781 75.3125C 89.9844 76.9375 92.4531 77.75 95.4844 77.75C 100.484 77.75 104.391 76 107.203 72.5L 114.422 81.0312C 112.453 83.75 109.656 85.9219 106.031 87.5469C 102.438 89.1406 98.5625 89.9375 94.4062 89.9375ZM 92.625 49.5312C 88 49.5312 85.25 52.5938 84.375 58.7188L 100.312 58.7188L 100.312 57.5C 100.375 54.9688 99.7344 53.0156 98.3906 51.6406C 97.0469 50.2344 95.125 49.5312 92.625 49.5312ZM 140.578 25.6719L 140.578 38.2812L 148.922 38.2812L 148.922 49.25L 140.578 49.25L 140.578 72.4531C 140.578 74.3594 140.922 75.6875 141.609 76.4375C 142.297 77.1875 143.656 77.5625 145.688 77.5625C 147.25 77.5625 148.562 77.4688 149.625 77.2812L 149.625 88.5781C 146.781 89.4844 143.812 89.9375 140.719 89.9375C 135.281 89.9375 131.266 88.6562 128.672 86.0938C 126.078 83.5312 124.781 79.6406 124.781 74.4219L 124.781 49.25L 118.312 49.25L 118.312 38.2812L 124.781 38.2812L 124.781 25.6719L 140.578 25.6719ZM 207.656 89C 207.094 87.9688 206.594 86.4531 206.156 84.4531C 203.25 88.1094 199.188 89.9375 193.969 89.9375C 189.188 89.9375 185.125 88.5 181.781 85.625C 178.438 82.7188 176.766 79.0781 176.766 74.7031C 176.766 69.2031 178.797 65.0469 182.859 62.2344C 186.922 59.4219 192.828 58.0156 200.578 58.0156L 205.453 58.0156L 205.453 55.3438C 205.453 50.6875 203.438 48.3594 199.406 48.3594C 195.656 48.3594 193.781 50.2031 193.781 53.8906L 177.984 53.8906C 177.984 48.9844 180.062 45 184.219 41.9375C 188.406 38.875 193.734 37.3438 200.203 37.3438C 206.672 37.3438 211.781 38.9219 215.531 42.0781C 219.281 45.2344 221.203 49.5625 221.297 55.0625L 221.297 77.5156C 221.359 82.1719 222.078 85.7344 223.453 88.2031L 223.453 89L 207.656 89ZM 197.766 78.6875C 199.734 78.6875 201.359 78.2656 202.641 77.4219C 203.953 76.5781 204.891 75.625 205.453 74.5625L 205.453 66.4531L 200.859 66.4531C 195.359 66.4531 192.609 68.9219 192.609 73.8594C 192.609 75.2969 193.094 76.4688 194.062 77.375C 195.031 78.25 196.266 78.6875 197.766 78.6875ZM 284.672 52.5781L 279.469 52.2031C 274.5 52.2031 271.312 53.7656 269.906 56.8906L 269.906 89L 254.109 89L 254.109 38.2812L 268.922 38.2812L 269.438 44.7969C 272.094 39.8281 275.797 37.3438 280.547 37.3438C 282.234 37.3438 283.703 37.5312 284.953 37.9062L 284.672 52.5781ZM 307.031 89L 291.188 89L 291.188 38.2812L 307.031 38.2812L 307.031 89ZM 290.25 25.2031C 290.25 22.9531 291.062 21.1094 292.688 19.6719C 294.312 18.2344 296.422 17.5156 299.016 17.5156C 301.609 17.5156 303.719 18.2344 305.344 19.6719C 306.969 21.1094 307.781 22.9531 307.781 25.2031C 307.781 27.4531 306.969 29.2969 305.344 30.7344C 303.719 32.1719 301.609 32.8906 299.016 32.8906C 296.422 32.8906 294.312 32.1719 292.688 30.7344C 291.062 29.2969 290.25 27.4531 290.25 25.2031ZM 314.812 63.2656C 314.812 55.2344 316.547 48.9062 320.016 44.2812C 323.484 39.6562 328.328 37.3438 334.547 37.3438C 339.078 37.3438 342.891 39.125 345.984 42.6875L 345.984 17L 361.828 17L 361.828 89L 347.625 89L 346.828 83.5625C 343.578 87.8125 339.453 89.9375 334.453 89.9375C 328.422 89.9375 323.641 87.625 320.109 83C 316.578 78.375 314.812 71.7969 314.812 63.2656ZM 330.609 64.25C 330.609 73.25 333.234 77.75 338.484 77.75C 341.984 77.75 344.484 76.2812 345.984 73.3438L 345.984 54.0312C 344.547 51.0312 342.078 49.5312 338.578 49.5312C 333.703 49.5312 331.062 53.4688 330.656 61.3438L 330.609 64.25ZM 395.344 89.9375C 387.562 89.9375 381.266 87.625 376.453 83C 371.641 78.3438 369.234 72.2969 369.234 64.8594L 369.234 63.5469C 369.234 58.3594 370.188 53.7812 372.094 49.8125C 374.031 45.8438 376.844 42.7812 380.531 40.625C 384.219 38.4375 388.594 37.3438 393.656 37.3438C 400.781 37.3438 406.406 39.5625 410.531 44C 414.656 48.4062 416.719 54.5625 416.719 62.4688L 416.719 68.6094L 385.312 68.6094C 385.875 71.4531 387.109 73.6875 389.016 75.3125C 390.922 76.9375 393.391 77.75 396.422 77.75C 401.422 77.75 405.328 76 408.141 72.5L 415.359 81.0312C 413.391 83.75 410.594 85.9219 406.969 87.5469C 403.375 89.1406 399.5 89.9375 395.344 89.9375ZM 393.562 49.5312C 388.938 49.5312 386.188 52.5938 385.312 58.7188L 401.25 58.7188L 401.25 57.5C 401.312 54.9688 400.672 53.0156 399.328 51.6406C 397.984 50.2344 396.062 49.5312 393.562 49.5312Z" transform="translate(412 76)" fill="white"/>
</g>
</g>
</svg>
